<?xml version="1.0" encoding="UTF-8"?>
<svg width="90px" height="38px" viewBox="0 0 90 38" version="1.1" xmlns="http://www.w3.org/2000/svg" xmlns:xlink="http://www.w3.org/1999/xlink">
    <!-- Generator: Sketch 51.1 (57501) - http://www.bohemiancoding.com/sketch -->
    <title>Group 35</title>
    <desc>Created with Sketch.</desc>
    <defs></defs>
    <g id="Page-1" stroke="none" stroke-width="1" fill="none" fill-rule="evenodd">
        <g id="Diseña-tu-propio-anillo-2" transform="translate(-15.000000, -393.000000)">
            <g id="Group-21" transform="translate(0.000000, 338.000000)">
                <g id="Group-18" transform="translate(0.000000, 30.000000)">
                    <g id="Group-35" transform="translate(15.000000, 25.000000)">
                        <rect id="Rectangle-12-Copy-6" fill="#6C7C8D" fill-rule="nonzero" x="0" y="13.1733333" width="90" height="11.6533333" rx="4.5"></rect>
                        <g id="Group-19-Copy-11" transform="translate(26.145251, 0.000000)">
                            <ellipse id="Oval-7" fill="#FFFFFF" fill-rule="nonzero" cx="18.8547486" cy="19" rx="18.8547486" ry="19"></ellipse>
                            <path d="M4.88609344,24.7303428 L5.81079629,31.8990806 L1.81117896,25.8437953 L0.490604145,19.1519872 L4.88609344,24.7303428 Z M1.78255065,11.9109746 L5.66256339,6.00738229 L4.88609344,13.1188885 L0.48901832,18.8429703 L1.78255065,11.9109746 Z M11.829753,1.76493433 L18.7864329,0.491384744 L13.0858932,4.796695 L13.0582665,4.78366872 L5.88374423,5.78526328 L11.829753,1.76493433 Z M24.1280754,4.93384908 L24.0789149,5.0538589 L18.8550407,7.52011111 L13.6475256,5.04797606 L13.6109682,4.9716673 L18.9415934,0.945707632 L24.1280754,4.93384908 Z M25.8501144,1.76459816 L31.8840112,5.7859356 L24.6808606,4.78366872 L19.0994247,0.491888987 L25.8501144,1.76459816 Z M35.8970663,11.8199587 L37.2212301,18.7760741 L32.8682242,13.2408313 L32.1061936,6.00746633 L35.8970663,11.8199587 Z M35.9867906,25.9362398 L32.016052,31.8465553 L32.7924384,24.8217789 L37.2223151,19.0792922 L35.9867906,25.9362398 Z M25.9937567,36.1164005 L19.0166279,37.5040771 L24.7111582,33.0959853 L31.7974585,32.0663212 L25.9937567,36.1164005 Z M13.653702,32.8763035 L13.7020279,32.7583946 L18.8537053,30.4664424 L24.1102141,32.8305014 L24.158373,32.9473177 L18.8618848,37.047233 L13.653702,32.8763035 Z M5.48645336,24.9760772 L10.0979487,26.8637107 L10.6747716,27.1001166 L12.8580352,32.4209721 L12.816303,32.5226611 L6.24163987,31.6903241 L5.38120467,25.0196942 L5.48645336,24.9760772 Z M7.44369515,18.8762504 L5.1460018,24.1285289 L5.0294854,24.1766841 L0.946320142,18.9948315 L5.03315784,13.6748164 L5.14742069,13.7222993 L7.44369515,18.8762504 Z M10.7608235,10.7360885 L5.48803919,12.8747509 L5.37461098,12.8275202 L6.0964117,6.21706332 L12.7729849,5.28497024 L12.8193077,5.39775258 L10.7608235,10.7360885 Z M11.3374795,10.5079186 L13.3084095,5.39237399 L18.2902367,7.75735741 L11.3374795,10.5079186 Z M5.48770533,13.3692452 L10.5241183,11.3268932 L7.68515785,18.2969593 L5.48770533,13.3692452 Z M10.4425735,26.5072109 L5.48770533,24.4813308 L7.68390589,19.4651221 L10.4425735,26.5072109 Z M18.2740446,30.2214644 L13.3518945,32.4143329 L11.2720434,27.3452627 L18.2740446,30.2214644 Z M26.4949608,11.044181 L29.8407175,18.8975967 L26.6037985,26.7941251 L18.8547069,29.9662334 L11.0258232,26.75034 L7.94055913,18.8745696 L11.1119585,11.0882182 L18.8545399,8.02527849 L26.4949608,11.044181 Z M26.285465,10.4703525 L19.4208464,7.75786166 L24.4313019,5.39237399 L26.285465,10.4703525 Z M32.2743745,12.9895502 L26.8508533,10.6941523 L24.9185674,5.4019546 L24.9665595,5.2848862 L31.6718445,6.21790372 L32.3806248,12.9463534 L32.2743745,12.9895502 Z M30.3366634,18.902387 L32.6055615,13.8409644 L32.7233299,13.7929773 L36.7629267,18.9296161 L32.6473772,24.2646745 L32.5431301,24.2205532 L30.3366634,18.902387 Z M27.0975743,11.2991598 L32.2666123,13.4858934 L30.0936983,18.3318361 L27.0975743,11.2991598 Z M32.1941651,24.568817 L27.1913884,26.5588958 L27.1907207,26.5605766 L27.1906372,26.5605766 L30.0877723,19.4931076 L32.1941651,24.568817 Z M24.460264,32.4873641 L19.4312794,30.2236494 L26.3838696,27.3777023 L26.3835358,27.3777863 L24.460264,32.4873641 Z M26.9571871,27.1450782 L32.1889903,25.0624708 L32.303754,25.1109622 L31.5825375,31.6356137 L24.9953547,32.5928349 L24.9486981,32.4796323 L26.9571871,27.1450782 Z M11.5675076,35.9966428 L6.02788737,32.123973 L13.1036711,33.0198446 L18.7013826,37.5028165 L11.5675076,35.9966428 Z M5.57208791,32.3592023 L11.3851377,36.4229802 L18.8547069,38 L26.1737896,36.5443347 L32.2578485,32.2985251 L36.4142956,26.1117164 L37.7094972,18.9241535 L36.323987,11.6456588 L32.3482405,5.54986587 L26.0231362,1.3343949 L18.9450989,0 L11.6561469,1.3343949 L5.42151801,5.54986587 L1.3553795,11.7366746 L0,19.000042 L1.38542671,26.0207845 L5.57208791,32.3592023 Z" id="Fill-15" fill="#323C47"></path>
                        </g>
                    </g>
                </g>
            </g>
        </g>
    </g>
</svg>