<?xml version="1.0" encoding="UTF-8"?>
<svg width="147px" height="200px" viewBox="0 0 147 200" version="1.1" xmlns="http://www.w3.org/2000/svg" xmlns:xlink="http://www.w3.org/1999/xlink">
    <!-- Generator: Sketch 51.1 (57501) - http://www.bohemiancoding.com/sketch -->
    <title>shutterstock_272093111</title>
    <desc>Created with Sketch.</desc>
    <defs>
        <polygon id="path-1" points="0.017854251 0 146.851215 0 146.851215 199.982143 0.017854251 199.982143"></polygon>
    </defs>
    <g id="Page-1" stroke="none" stroke-width="1" fill="none" fill-rule="evenodd" opacity="0.3">
        <g id="Gracias-por-tu-compra" transform="translate(-114.000000, -100.000000)">
            <g id="Group-3" transform="translate(20.000000, 100.000000)">
                <g id="shutterstock_272093111" transform="translate(94.000000, 0.000000)">
                    <mask id="mask-2" fill="white">
                        <use xlink:href="#path-1"></use>
                    </mask>
                    <g id="Clip-2"></g>
                    <path d="M73.4256073,190.625 C38.1072206,190.625 9.37348178,161.886607 9.37348178,126.5625 C9.37348178,91.2383929 38.1072206,62.5 73.4256073,62.5 C108.743994,62.5 137.477733,91.2383929 137.477733,126.5625 C137.477733,161.886607 108.743994,190.625 73.4256073,190.625 Z M54.0293441,6.25 L66.3160445,6.25 L58.304247,15.625 L45.4601964,15.625 L54.0293441,6.25 Z M101.391911,15.625 L88.5035223,15.625 L80.0971457,6.25 L92.8209777,6.25 L101.391911,15.625 Z M57.5109231,21.875 L67.3328441,51.0651786 L44.7400749,21.875 L57.5109231,21.875 Z M66.5252368,15.625 L73.1539251,7.86815476 L80.1078583,15.625 L66.5252368,15.625 Z M73.4256073,49.5782738 L64.1039028,21.875 L82.7487996,21.875 L73.4256073,49.5782738 Z M89.3423745,21.875 L102.124233,21.875 L79.4549879,51.2550595 L89.3423745,21.875 Z M85.169836,54.0764881 L110.954648,20.6589286 C111.882176,19.4571429 111.811949,17.7619048 110.788306,16.641369 L96.5055,1.01636905 C95.913334,0.368452381 95.0759696,0 94.1987308,0 L52.6524838,0 C51.7752449,0 50.9384757,0.368452381 50.3466073,1.01636905 L36.0643968,16.641369 C35.0383725,17.7633929 34.9690385,19.4610119 35.8998401,20.6627976 L61.7516053,54.0633929 C26.7947672,59.6741071 0,90.0428571 0,126.5625 C0,167.05625 32.938415,200 73.4256073,200 C113.9128,200 146.851215,167.05625 146.851215,126.5625 C146.851215,90.0672619 120.093049,59.7166667 85.169836,54.0764881 Z" id="Fill-1" fill="#6C7C8D" mask="url(#mask-2)"></path>
                </g>
            </g>
        </g>
    </g>
</svg>