<?xml version="1.0" encoding="utf-8"?>
<!-- Generator: Adobe Illustrator 16.0.0, SVG Export Plug-In . SVG Version: 6.00 Build 0)  -->
<!DOCTYPE svg PUBLIC "-//W3C//DTD SVG 1.1//EN" "http://www.w3.org/Graphics/SVG/1.1/DTD/svg11.dtd">
<svg version="1.1" id="Capa_1" xmlns="http://www.w3.org/2000/svg" xmlns:xlink="http://www.w3.org/1999/xlink" x="0px" y="0px"
	 width="147px" height="200px" viewBox="0 0 147 200" enable-background="new 0 0 147 200" xml:space="preserve">
<title>shutterstock_272093111</title>
<desc>Created with Sketch.</desc>
<g id="Page-1" opacity="0.3">
	<g id="Gracias-por-tu-compra" transform="translate(-114.000000, -100.000000)">
		<g id="Group-3" transform="translate(20.000000, 100.000000)">
			<g id="shutterstock_272093111" transform="translate(94.000000, 0.000000)">
				<g id="Clip-2">
				</g>
				<defs>
					<filter id="Adobe_OpacityMaskFilter" filterUnits="userSpaceOnUse" x="0" y="0" width="146.852" height="200">
						<feColorMatrix  type="matrix" values="1 0 0 0 0  0 1 0 0 0  0 0 1 0 0  0 0 0 1 0"/>
					</filter>
				</defs>
				<mask maskUnits="userSpaceOnUse" x="0" y="0" width="146.852" height="200" id="mask-2">
					<g filter="url(#Adobe_OpacityMaskFilter)">
						<polygon id="path-1" fill="#FFFFFF" points="0.018,0 146.852,0 146.852,199.982 0.018,199.982 						"/>
					</g>
				</mask>
				<path id="Fill-1" mask="url(#mask-2)" fill="#6C7C8D" d="M73.426,190.625c-35.318,0-64.052-28.738-64.052-64.063
					S38.107,62.5,73.426,62.5s64.052,28.738,64.052,64.063S108.744,190.625,73.426,190.625z M54.029,6.25h12.287l-8.012,9.375H45.46
					L54.029,6.25z M101.393,15.625H88.504L80.098,6.25H92.82L101.393,15.625z M57.511,21.875l9.822,29.19L44.74,21.875H57.511z
					 M66.525,15.625l6.628-7.757l6.954,7.757H66.525z M73.426,49.578l-9.322-27.703h18.645L73.426,49.578z M89.342,21.875h12.782
					l-22.669,29.38L89.342,21.875z M85.17,54.077l25.785-33.417c0.928-1.202,0.857-2.897-0.167-4.018L96.506,1.017
					C95.913,0.369,95.076,0,94.199,0H52.652c-0.877,0-1.714,0.369-2.306,1.017L36.064,16.642c-1.026,1.122-1.095,2.819-0.165,4.021
					l25.852,33.401C26.795,59.674,0,90.043,0,126.563C0,167.057,32.938,200,73.426,200c40.486,0,73.426-32.943,73.426-73.438
					C146.852,90.067,120.094,59.717,85.17,54.077z"/>
			</g>
		</g>
	</g>
</g>
<g opacity="0.3">
	<g>
		<path fill="#6C7C8D" d="M98.458,129.342H48.546c-1.997,0-3.619-1.614-3.619-3.615c0-1.998,1.618-3.62,3.619-3.62h49.912
			c1.997,0,3.614,1.622,3.614,3.62C102.072,127.728,100.459,129.342,98.458,129.342z"/>
	</g>
	<g>
		<path fill="#6C7C8D" d="M73.502,154.297c-1.997,0-3.619-1.618-3.619-3.615v-49.911c0-1.997,1.622-3.619,3.619-3.619
			c1.996,0,3.615,1.622,3.615,3.619v49.911C77.117,152.683,75.504,154.297,73.502,154.297z"/>
	</g>
</g>
</svg>
