<?xml version="1.0" encoding="UTF-8"?>
<svg width="90px" height="56px" viewBox="0 0 90 56" version="1.1" xmlns="http://www.w3.org/2000/svg" xmlns:xlink="http://www.w3.org/1999/xlink">
    <!-- Generator: Sketch 51.1 (57501) - http://www.bohemiancoding.com/sketch -->
    <title>Group 36</title>
    <desc>Created with Sketch.</desc>
    <defs></defs>
    <g id="Page-1" stroke="none" stroke-width="1" fill="none" fill-rule="evenodd">
        <g id="Diseña-tu-propio-anillo-2" transform="translate(-265.000000, -384.000000)">
            <g id="Group-21" transform="translate(0.000000, 338.000000)">
                <g id="Group-18" transform="translate(0.000000, 30.000000)">
                    <g id="Group-36" transform="translate(265.000000, 16.000000)">
                        <rect id="Rectangle-12-Copy-5" fill="#6C7C8D" fill-rule="nonzero" x="0" y="22.5" width="90" height="11.5" rx="4.5"></rect>
                        <g id="Group-34" transform="translate(17.094972, 0.000000)">
                            <g id="Group-19-Copy-9" transform="translate(9.050279, 9.500000)">
                                <ellipse id="Oval-7" fill="#FFFFFF" fill-rule="nonzero" cx="18.8547486" cy="18.75" rx="18.8547486" ry="18.75"></ellipse>
                                <path d="M4.88609344,24.4049436 L5.81079629,31.4793559 L1.81117896,25.5037453 L0.490604145,18.8999874 L4.88609344,24.4049436 Z M1.78255065,11.7542512 L5.66256339,5.92833779 L4.88609344,12.9462716 L0.48901832,18.5950365 L1.78255065,11.7542512 Z M11.829753,1.74171151 L18.7864329,0.484919155 L13.0858932,4.73358059 L13.0582665,4.72072571 L5.88374423,5.70914139 L11.829753,1.74171151 Z M24.1280754,4.86893001 L24.0789149,4.98736075 L18.8550407,7.42116228 L13.6475256,4.98155532 L13.6109682,4.90625062 L18.9415934,0.933264111 L24.1280754,4.86893001 Z M25.8501144,1.74137977 L31.8840112,5.70980487 L24.6808606,4.72072571 L19.0994247,0.485416763 L25.8501144,1.74137977 Z M35.8970663,11.664433 L37.2212301,18.5290205 L32.8682242,13.0666098 L32.1061936,5.92842072 L35.8970663,11.664433 Z M35.9867906,25.5949735 L32.016052,31.4275217 L32.7924384,24.4951765 L37.2223151,18.8282489 L35.9867906,25.5949735 Z M25.9937567,35.6411847 L19.0166279,37.0106024 L24.7111582,32.6605118 L31.7974585,31.6443959 L25.9937567,35.6411847 Z M13.653702,32.4437205 L13.7020279,32.3273631 L18.8537053,30.0655682 L24.1102141,32.3985211 L24.158373,32.5138003 L18.8618848,36.5597694 L13.653702,32.4437205 Z M5.48645336,24.6474446 L10.0979487,26.5102408 L10.6747716,26.7435361 L12.8580352,31.9943803 L12.816303,32.0947313 L6.24163987,31.2733461 L5.38120467,24.6904877 L5.48645336,24.6474446 Z M7.44369515,18.6278787 L5.1460018,23.8110482 L5.0294854,23.8585698 L0.946320142,18.7448995 L5.03315784,13.4948846 L5.14742069,13.5417427 L7.44369515,18.6278787 Z M10.7608235,10.5948242 L5.48803919,12.7053463 L5.37461098,12.658737 L6.0964117,6.13525985 L12.7729849,5.21543116 L12.8193077,5.32672952 L10.7608235,10.5948242 Z M11.3374795,10.3696565 L13.3084095,5.3214217 L18.2902367,7.65528692 L11.3374795,10.3696565 Z M5.48770533,13.193334 L10.5241183,11.1778551 L7.68515785,18.0562098 L5.48770533,13.193334 Z M10.4425735,26.1584318 L5.48770533,24.1592081 L7.68390589,19.2090021 L10.4425735,26.1584318 Z M18.2740446,29.8238135 L13.3518945,31.9878285 L11.2720434,26.9854566 L18.2740446,29.8238135 Z M26.4949608,10.8988628 L29.8407175,18.6489441 L26.6037985,26.4415708 L18.8547069,29.5719409 L11.0258232,26.3983619 L7.94055913,18.62622 L11.1119585,10.9423206 L18.8545399,7.91968273 L26.4949608,10.8988628 Z M26.285465,10.3325847 L19.4208464,7.65578453 L24.4313019,5.3214217 L26.285465,10.3325847 Z M32.2743745,12.8186351 L26.8508533,10.5534398 L24.9185674,5.33087625 L24.9665595,5.21534823 L31.6718445,6.1360892 L32.3806248,12.7760067 L32.2743745,12.8186351 Z M30.3366634,18.6536714 L32.6055615,13.6588465 L32.7233299,13.6114908 L36.7629267,18.6805422 L32.6473772,23.9454024 L32.5431301,23.9018617 L30.3366634,18.6536714 Z M27.0975743,11.1504867 L32.2666123,13.3084474 L30.0936983,18.0906277 L27.0975743,11.1504867 Z M32.1941651,24.2455431 L27.1913884,26.2094366 L27.1907207,26.2110953 L27.1906372,26.2110953 L30.0877723,19.2366193 L32.1941651,24.2455431 Z M24.460264,32.0598988 L19.4312794,29.8259698 L26.3838696,27.0174694 L26.3835358,27.0175523 L24.460264,32.0598988 Z M26.9571871,26.7879061 L32.1889903,24.7327015 L32.303754,24.7805548 L31.5825375,31.2193556 L24.9953547,32.1639818 L24.9486981,32.0522688 L26.9571871,26.7879061 Z M11.5675076,35.5230028 L6.02788737,31.7012891 L13.1036711,32.585373 L18.7013826,37.0093584 L11.5675076,35.5230028 Z M5.57208791,31.9334233 L11.3851377,35.9437305 L18.8547069,37.5 L26.1737896,36.0634882 L32.2578485,31.8735445 L36.4142956,25.7681411 L37.7094972,18.6751514 L36.323987,11.4924264 L32.3482405,5.47684132 L26.0231362,1.31683707 L18.9450989,0 L11.6561469,1.31683707 L5.42151801,5.47684132 L1.3553795,11.5822447 L0,18.7500415 L1.38542671,25.6784058 L5.57208791,31.9334233 Z" id="Fill-15" fill="#323C47"></path>
                            </g>
                            <g id="Group-20">
                                <g id="Group-19-Copy-8" transform="translate(0.000000, 23.500000)">
                                    <ellipse id="Oval-7" fill="#FFFFFF" fill-rule="nonzero" cx="4.52513966" cy="4.5" rx="4.52513966" ry="4.5"></ellipse>
                                    <path d="M1.17266243,5.85718646 L1.39459111,7.55504542 L0.434682951,6.12089888 L0.117744995,4.53599697 L1.17266243,5.85718646 Z M0.427812156,2.8210203 L1.35901521,1.42280107 L1.17266243,3.10710518 L0.117364397,4.46280877 L0.427812156,2.8210203 Z M2.83914071,0.418010762 L4.5087439,0.116380597 L3.14061437,1.13605934 L3.13398395,1.13297417 L1.41209862,1.37019393 L2.83914071,0.418010762 Z M5.79073811,1.1685432 L5.77893957,1.19696658 L4.52520977,1.78107895 L3.27540615,1.19557328 L3.26663236,1.17750015 L4.54598241,0.223983387 L5.79073811,1.1685432 Z M6.20402745,0.417931144 L7.65216268,1.37035317 L5.92340655,1.13297417 L4.58386193,0.116500023 L6.20402745,0.417931144 Z M8.61529591,2.79946391 L8.93309522,4.44696492 L7.8883738,3.13598636 L7.70548646,1.42282097 L8.61529591,2.79946391 Z M8.63682974,6.14279364 L7.68385247,7.54260521 L7.87018523,5.87884236 L8.93335563,4.51877973 L8.63682974,6.14279364 Z M6.23850161,8.55388433 L4.56399071,8.88254457 L5.93067797,7.83852283 L7.63139004,7.59465502 L6.23850161,8.55388433 Z M3.27688848,7.78649292 L3.2884867,7.75856715 L4.52488927,7.21573636 L5.78645137,7.77564507 L5.79800953,7.80331208 L4.52685236,8.77434465 L3.27688848,7.78649292 Z M1.31674881,5.91538671 L2.42350769,6.36245779 L2.5619452,6.41844866 L3.08592845,7.67865128 L3.07591271,7.70273552 L1.49799357,7.50560307 L1.29148912,5.92571705 L1.31674881,5.91538671 Z M1.78648684,4.47069088 L1.23504043,5.71465157 L1.2070765,5.72605675 L0.227116834,4.49877588 L1.20795788,3.2387723 L1.23538097,3.25001825 L1.78648684,4.47069088 Z M2.58259764,2.54275781 L1.31712941,3.04928311 L1.28990663,3.03809688 L1.46313881,1.47246236 L3.06551638,1.25170348 L3.07663385,1.27841508 L2.58259764,2.54275781 Z M2.72099509,2.48871756 L3.19401828,1.27714121 L4.3896568,1.83726886 L2.72099509,2.48871756 Z M1.31704928,3.16640017 L2.52578839,2.68268523 L1.84443789,4.33349036 L1.31704928,3.16640017 Z M2.50621764,6.27802363 L1.31704928,5.79820994 L1.84413741,4.6101605 L2.50621764,6.27802363 Z M4.3857707,7.15771525 L3.20445467,7.67707884 L2.70529041,6.47650958 L4.3857707,7.15771525 Z M6.3587906,2.61572707 L7.16177221,4.47574658 L6.38491164,6.345977 L4.52512965,7.09726581 L2.64619757,6.33560685 L1.90573419,4.47029279 L2.66687005,2.62615694 L4.52508959,1.90072385 L6.3587906,2.61572707 Z M6.30851161,2.47982033 L4.66100313,1.83738829 L5.86351245,1.27714121 L6.30851161,2.47982033 Z M7.74584988,3.07647242 L6.4442048,2.53282555 L5.98045618,1.2794103 L5.99197428,1.25168357 L7.60124268,1.47266141 L7.77134994,3.0662416 L7.74584988,3.07647242 Z M7.28079921,4.47688112 L7.82533476,3.27812315 L7.85359917,3.26675778 L8.8231024,4.48333013 L7.83537053,5.74689658 L7.81035122,5.73644681 L7.28079921,4.47688112 Z M6.50341783,2.6761168 L7.74398695,3.19402738 L7.2224876,4.34175065 L6.50341783,2.6761168 Z M7.72659963,5.81893034 L6.52593321,6.29026479 L6.52577296,6.29066288 L6.52575292,6.29066288 L7.22106536,4.61678864 L7.72659963,5.81893034 Z M5.87046337,7.6943757 L4.66350706,7.15823276 L6.33212871,6.48419265 L6.33204859,6.48421255 L5.87046337,7.6943757 Z M6.4697249,6.42909747 L7.72535768,5.93584836 L7.75290096,5.94733315 L7.579809,7.49264535 L5.99888514,7.71935563 L5.98768754,7.6925445 L6.4697249,6.42909747 Z M2.77620182,8.52552066 L1.44669297,7.60830939 L3.14488107,7.82048951 L4.48833183,8.882246 L2.77620182,8.52552066 Z M1.3373011,7.6640216 L2.73243306,8.62649531 L4.52512965,9 L6.2817095,8.65523716 L7.74188365,7.64965068 L8.73943094,6.18435387 L9.05027933,4.48203635 L8.71775689,2.75818234 L7.76357773,1.31444192 L6.24555269,0.316040897 L4.54682373,0 L2.79747525,0.316040897 L1.30116432,1.31444192 L0.32529108,2.77973872 L0,4.50000995 L0.332502411,6.16281739 L1.3373011,7.6640216 Z" id="Fill-15" fill="#323C47"></path>
                                </g>
                                <g id="Group-19-Copy-10" transform="translate(46.759777, 23.500000)">
                                    <ellipse id="Oval-7" fill="#FFFFFF" fill-rule="nonzero" cx="4.52513966" cy="4.5" rx="4.52513966" ry="4.5"></ellipse>
                                    <path d="M1.17266243,5.85718646 L1.39459111,7.55504542 L0.434682951,6.12089888 L0.117744995,4.53599697 L1.17266243,5.85718646 Z M0.427812156,2.8210203 L1.35901521,1.42280107 L1.17266243,3.10710518 L0.117364397,4.46280877 L0.427812156,2.8210203 Z M2.83914071,0.418010762 L4.5087439,0.116380597 L3.14061437,1.13605934 L3.13398395,1.13297417 L1.41209862,1.37019393 L2.83914071,0.418010762 Z M5.79073811,1.1685432 L5.77893957,1.19696658 L4.52520977,1.78107895 L3.27540615,1.19557328 L3.26663236,1.17750015 L4.54598241,0.223983387 L5.79073811,1.1685432 Z M6.20402745,0.417931144 L7.65216268,1.37035317 L5.92340655,1.13297417 L4.58386193,0.116500023 L6.20402745,0.417931144 Z M8.61529591,2.79946391 L8.93309522,4.44696492 L7.8883738,3.13598636 L7.70548646,1.42282097 L8.61529591,2.79946391 Z M8.63682974,6.14279364 L7.68385247,7.54260521 L7.87018523,5.87884236 L8.93335563,4.51877973 L8.63682974,6.14279364 Z M6.23850161,8.55388433 L4.56399071,8.88254457 L5.93067797,7.83852283 L7.63139004,7.59465502 L6.23850161,8.55388433 Z M3.27688848,7.78649292 L3.2884867,7.75856715 L4.52488927,7.21573636 L5.78645137,7.77564507 L5.79800953,7.80331208 L4.52685236,8.77434465 L3.27688848,7.78649292 Z M1.31674881,5.91538671 L2.42350769,6.36245779 L2.5619452,6.41844866 L3.08592845,7.67865128 L3.07591271,7.70273552 L1.49799357,7.50560307 L1.29148912,5.92571705 L1.31674881,5.91538671 Z M1.78648684,4.47069088 L1.23504043,5.71465157 L1.2070765,5.72605675 L0.227116834,4.49877588 L1.20795788,3.2387723 L1.23538097,3.25001825 L1.78648684,4.47069088 Z M2.58259764,2.54275781 L1.31712941,3.04928311 L1.28990663,3.03809688 L1.46313881,1.47246236 L3.06551638,1.25170348 L3.07663385,1.27841508 L2.58259764,2.54275781 Z M2.72099509,2.48871756 L3.19401828,1.27714121 L4.3896568,1.83726886 L2.72099509,2.48871756 Z M1.31704928,3.16640017 L2.52578839,2.68268523 L1.84443789,4.33349036 L1.31704928,3.16640017 Z M2.50621764,6.27802363 L1.31704928,5.79820994 L1.84413741,4.6101605 L2.50621764,6.27802363 Z M4.3857707,7.15771525 L3.20445467,7.67707884 L2.70529041,6.47650958 L4.3857707,7.15771525 Z M6.3587906,2.61572707 L7.16177221,4.47574658 L6.38491164,6.345977 L4.52512965,7.09726581 L2.64619757,6.33560685 L1.90573419,4.47029279 L2.66687005,2.62615694 L4.52508959,1.90072385 L6.3587906,2.61572707 Z M6.30851161,2.47982033 L4.66100313,1.83738829 L5.86351245,1.27714121 L6.30851161,2.47982033 Z M7.74584988,3.07647242 L6.4442048,2.53282555 L5.98045618,1.2794103 L5.99197428,1.25168357 L7.60124268,1.47266141 L7.77134994,3.0662416 L7.74584988,3.07647242 Z M7.28079921,4.47688112 L7.82533476,3.27812315 L7.85359917,3.26675778 L8.8231024,4.48333013 L7.83537053,5.74689658 L7.81035122,5.73644681 L7.28079921,4.47688112 Z M6.50341783,2.6761168 L7.74398695,3.19402738 L7.2224876,4.34175065 L6.50341783,2.6761168 Z M7.72659963,5.81893034 L6.52593321,6.29026479 L6.52577296,6.29066288 L6.52575292,6.29066288 L7.22106536,4.61678864 L7.72659963,5.81893034 Z M5.87046337,7.6943757 L4.66350706,7.15823276 L6.33212871,6.48419265 L6.33204859,6.48421255 L5.87046337,7.6943757 Z M6.4697249,6.42909747 L7.72535768,5.93584836 L7.75290096,5.94733315 L7.579809,7.49264535 L5.99888514,7.71935563 L5.98768754,7.6925445 L6.4697249,6.42909747 Z M2.77620182,8.52552066 L1.44669297,7.60830939 L3.14488107,7.82048951 L4.48833183,8.882246 L2.77620182,8.52552066 Z M1.3373011,7.6640216 L2.73243306,8.62649531 L4.52512965,9 L6.2817095,8.65523716 L7.74188365,7.64965068 L8.73943094,6.18435387 L9.05027933,4.48203635 L8.71775689,2.75818234 L7.76357773,1.31444192 L6.24555269,0.316040897 L4.54682373,0 L2.79747525,0.316040897 L1.30116432,1.31444192 L0.32529108,2.77973872 L0,4.50000995 L0.332502411,6.16281739 L1.3373011,7.6640216 Z" id="Fill-15" fill="#323C47"></path>
                                </g>
                                <g id="Group-19-Copy-8" transform="translate(44.437105, 11.559767) rotate(135.000000) translate(-44.437105, -11.559767) translate(39.911966, 7.059767)">
                                    <ellipse id="Oval-7" fill="#FFFFFF" fill-rule="nonzero" cx="4.52513966" cy="4.5" rx="4.52513966" ry="4.5"></ellipse>
                                    <path d="M1.17266243,5.85718646 L1.39459111,7.55504542 L0.434682951,6.12089888 L0.117744995,4.53599697 L1.17266243,5.85718646 Z M0.427812156,2.8210203 L1.35901521,1.42280107 L1.17266243,3.10710518 L0.117364397,4.46280877 L0.427812156,2.8210203 Z M2.83914071,0.418010762 L4.5087439,0.116380597 L3.14061437,1.13605934 L3.13398395,1.13297417 L1.41209862,1.37019393 L2.83914071,0.418010762 Z M5.79073811,1.1685432 L5.77893957,1.19696658 L4.52520977,1.78107895 L3.27540615,1.19557328 L3.26663236,1.17750015 L4.54598241,0.223983387 L5.79073811,1.1685432 Z M6.20402745,0.417931144 L7.65216268,1.37035317 L5.92340655,1.13297417 L4.58386193,0.116500023 L6.20402745,0.417931144 Z M8.61529591,2.79946391 L8.93309522,4.44696492 L7.8883738,3.13598636 L7.70548646,1.42282097 L8.61529591,2.79946391 Z M8.63682974,6.14279364 L7.68385247,7.54260521 L7.87018523,5.87884236 L8.93335563,4.51877973 L8.63682974,6.14279364 Z M6.23850161,8.55388433 L4.56399071,8.88254457 L5.93067797,7.83852283 L7.63139004,7.59465502 L6.23850161,8.55388433 Z M3.27688848,7.78649292 L3.2884867,7.75856715 L4.52488927,7.21573636 L5.78645137,7.77564507 L5.79800953,7.80331208 L4.52685236,8.77434465 L3.27688848,7.78649292 Z M1.31674881,5.91538671 L2.42350769,6.36245779 L2.5619452,6.41844866 L3.08592845,7.67865128 L3.07591271,7.70273552 L1.49799357,7.50560307 L1.29148912,5.92571705 L1.31674881,5.91538671 Z M1.78648684,4.47069088 L1.23504043,5.71465157 L1.2070765,5.72605675 L0.227116834,4.49877588 L1.20795788,3.2387723 L1.23538097,3.25001825 L1.78648684,4.47069088 Z M2.58259764,2.54275781 L1.31712941,3.04928311 L1.28990663,3.03809688 L1.46313881,1.47246236 L3.06551638,1.25170348 L3.07663385,1.27841508 L2.58259764,2.54275781 Z M2.72099509,2.48871756 L3.19401828,1.27714121 L4.3896568,1.83726886 L2.72099509,2.48871756 Z M1.31704928,3.16640017 L2.52578839,2.68268523 L1.84443789,4.33349036 L1.31704928,3.16640017 Z M2.50621764,6.27802363 L1.31704928,5.79820994 L1.84413741,4.6101605 L2.50621764,6.27802363 Z M4.3857707,7.15771525 L3.20445467,7.67707884 L2.70529041,6.47650958 L4.3857707,7.15771525 Z M6.3587906,2.61572707 L7.16177221,4.47574658 L6.38491164,6.345977 L4.52512965,7.09726581 L2.64619757,6.33560685 L1.90573419,4.47029279 L2.66687005,2.62615694 L4.52508959,1.90072385 L6.3587906,2.61572707 Z M6.30851161,2.47982033 L4.66100313,1.83738829 L5.86351245,1.27714121 L6.30851161,2.47982033 Z M7.74584988,3.07647242 L6.4442048,2.53282555 L5.98045618,1.2794103 L5.99197428,1.25168357 L7.60124268,1.47266141 L7.77134994,3.0662416 L7.74584988,3.07647242 Z M7.28079921,4.47688112 L7.82533476,3.27812315 L7.85359917,3.26675778 L8.8231024,4.48333013 L7.83537053,5.74689658 L7.81035122,5.73644681 L7.28079921,4.47688112 Z M6.50341783,2.6761168 L7.74398695,3.19402738 L7.2224876,4.34175065 L6.50341783,2.6761168 Z M7.72659963,5.81893034 L6.52593321,6.29026479 L6.52577296,6.29066288 L6.52575292,6.29066288 L7.22106536,4.61678864 L7.72659963,5.81893034 Z M5.87046337,7.6943757 L4.66350706,7.15823276 L6.33212871,6.48419265 L6.33204859,6.48421255 L5.87046337,7.6943757 Z M6.4697249,6.42909747 L7.72535768,5.93584836 L7.75290096,5.94733315 L7.579809,7.49264535 L5.99888514,7.71935563 L5.98768754,7.6925445 L6.4697249,6.42909747 Z M2.77620182,8.52552066 L1.44669297,7.60830939 L3.14488107,7.82048951 L4.48833183,8.882246 L2.77620182,8.52552066 Z M1.3373011,7.6640216 L2.73243306,8.62649531 L4.52512965,9 L6.2817095,8.65523716 L7.74188365,7.64965068 L8.73943094,6.18435387 L9.05027933,4.48203635 L8.71775689,2.75818234 L7.76357773,1.31444192 L6.24555269,0.316040897 L4.54682373,0 L2.79747525,0.316040897 L1.30116432,1.31444192 L0.32529108,2.77973872 L0,4.50000995 L0.332502411,6.16281739 L1.3373011,7.6640216 Z" id="Fill-15" fill="#323C47"></path>
                                </g>
                                <g id="Group-19-Copy-10" transform="translate(11.372950, 44.440233) rotate(135.000000) translate(-11.372950, -44.440233) translate(6.847811, 39.940233)">
                                    <ellipse id="Oval-7" fill="#FFFFFF" fill-rule="nonzero" cx="4.52513966" cy="4.5" rx="4.52513966" ry="4.5"></ellipse>
                                    <path d="M1.17266243,5.85718646 L1.39459111,7.55504542 L0.434682951,6.12089888 L0.117744995,4.53599697 L1.17266243,5.85718646 Z M0.427812156,2.8210203 L1.35901521,1.42280107 L1.17266243,3.10710518 L0.117364397,4.46280877 L0.427812156,2.8210203 Z M2.83914071,0.418010762 L4.5087439,0.116380597 L3.14061437,1.13605934 L3.13398395,1.13297417 L1.41209862,1.37019393 L2.83914071,0.418010762 Z M5.79073811,1.1685432 L5.77893957,1.19696658 L4.52520977,1.78107895 L3.27540615,1.19557328 L3.26663236,1.17750015 L4.54598241,0.223983387 L5.79073811,1.1685432 Z M6.20402745,0.417931144 L7.65216268,1.37035317 L5.92340655,1.13297417 L4.58386193,0.116500023 L6.20402745,0.417931144 Z M8.61529591,2.79946391 L8.93309522,4.44696492 L7.8883738,3.13598636 L7.70548646,1.42282097 L8.61529591,2.79946391 Z M8.63682974,6.14279364 L7.68385247,7.54260521 L7.87018523,5.87884236 L8.93335563,4.51877973 L8.63682974,6.14279364 Z M6.23850161,8.55388433 L4.56399071,8.88254457 L5.93067797,7.83852283 L7.63139004,7.59465502 L6.23850161,8.55388433 Z M3.27688848,7.78649292 L3.2884867,7.75856715 L4.52488927,7.21573636 L5.78645137,7.77564507 L5.79800953,7.80331208 L4.52685236,8.77434465 L3.27688848,7.78649292 Z M1.31674881,5.91538671 L2.42350769,6.36245779 L2.5619452,6.41844866 L3.08592845,7.67865128 L3.07591271,7.70273552 L1.49799357,7.50560307 L1.29148912,5.92571705 L1.31674881,5.91538671 Z M1.78648684,4.47069088 L1.23504043,5.71465157 L1.2070765,5.72605675 L0.227116834,4.49877588 L1.20795788,3.2387723 L1.23538097,3.25001825 L1.78648684,4.47069088 Z M2.58259764,2.54275781 L1.31712941,3.04928311 L1.28990663,3.03809688 L1.46313881,1.47246236 L3.06551638,1.25170348 L3.07663385,1.27841508 L2.58259764,2.54275781 Z M2.72099509,2.48871756 L3.19401828,1.27714121 L4.3896568,1.83726886 L2.72099509,2.48871756 Z M1.31704928,3.16640017 L2.52578839,2.68268523 L1.84443789,4.33349036 L1.31704928,3.16640017 Z M2.50621764,6.27802363 L1.31704928,5.79820994 L1.84413741,4.6101605 L2.50621764,6.27802363 Z M4.3857707,7.15771525 L3.20445467,7.67707884 L2.70529041,6.47650958 L4.3857707,7.15771525 Z M6.3587906,2.61572707 L7.16177221,4.47574658 L6.38491164,6.345977 L4.52512965,7.09726581 L2.64619757,6.33560685 L1.90573419,4.47029279 L2.66687005,2.62615694 L4.52508959,1.90072385 L6.3587906,2.61572707 Z M6.30851161,2.47982033 L4.66100313,1.83738829 L5.86351245,1.27714121 L6.30851161,2.47982033 Z M7.74584988,3.07647242 L6.4442048,2.53282555 L5.98045618,1.2794103 L5.99197428,1.25168357 L7.60124268,1.47266141 L7.77134994,3.0662416 L7.74584988,3.07647242 Z M7.28079921,4.47688112 L7.82533476,3.27812315 L7.85359917,3.26675778 L8.8231024,4.48333013 L7.83537053,5.74689658 L7.81035122,5.73644681 L7.28079921,4.47688112 Z M6.50341783,2.6761168 L7.74398695,3.19402738 L7.2224876,4.34175065 L6.50341783,2.6761168 Z M7.72659963,5.81893034 L6.52593321,6.29026479 L6.52577296,6.29066288 L6.52575292,6.29066288 L7.22106536,4.61678864 L7.72659963,5.81893034 Z M5.87046337,7.6943757 L4.66350706,7.15823276 L6.33212871,6.48419265 L6.33204859,6.48421255 L5.87046337,7.6943757 Z M6.4697249,6.42909747 L7.72535768,5.93584836 L7.75290096,5.94733315 L7.579809,7.49264535 L5.99888514,7.71935563 L5.98768754,7.6925445 L6.4697249,6.42909747 Z M2.77620182,8.52552066 L1.44669297,7.60830939 L3.14488107,7.82048951 L4.48833183,8.882246 L2.77620182,8.52552066 Z M1.3373011,7.6640216 L2.73243306,8.62649531 L4.52512965,9 L6.2817095,8.65523716 L7.74188365,7.64965068 L8.73943094,6.18435387 L9.05027933,4.48203635 L8.71775689,2.75818234 L7.76357773,1.31444192 L6.24555269,0.316040897 L4.54682373,0 L2.79747525,0.316040897 L1.30116432,1.31444192 L0.32529108,2.77973872 L0,4.50000995 L0.332502411,6.16281739 L1.3373011,7.6640216 Z" id="Fill-15" fill="#323C47"></path>
                                </g>
                                <g id="Group-19-Copy-8" transform="translate(27.905028, 4.750000) rotate(90.000000) translate(-27.905028, -4.750000) translate(23.379888, 0.250000)">
                                    <ellipse id="Oval-7" fill="#FFFFFF" fill-rule="nonzero" cx="4.52513966" cy="4.5" rx="4.52513966" ry="4.5"></ellipse>
                                    <path d="M1.17266243,5.85718646 L1.39459111,7.55504542 L0.434682951,6.12089888 L0.117744995,4.53599697 L1.17266243,5.85718646 Z M0.427812156,2.8210203 L1.35901521,1.42280107 L1.17266243,3.10710518 L0.117364397,4.46280877 L0.427812156,2.8210203 Z M2.83914071,0.418010762 L4.5087439,0.116380597 L3.14061437,1.13605934 L3.13398395,1.13297417 L1.41209862,1.37019393 L2.83914071,0.418010762 Z M5.79073811,1.1685432 L5.77893957,1.19696658 L4.52520977,1.78107895 L3.27540615,1.19557328 L3.26663236,1.17750015 L4.54598241,0.223983387 L5.79073811,1.1685432 Z M6.20402745,0.417931144 L7.65216268,1.37035317 L5.92340655,1.13297417 L4.58386193,0.116500023 L6.20402745,0.417931144 Z M8.61529591,2.79946391 L8.93309522,4.44696492 L7.8883738,3.13598636 L7.70548646,1.42282097 L8.61529591,2.79946391 Z M8.63682974,6.14279364 L7.68385247,7.54260521 L7.87018523,5.87884236 L8.93335563,4.51877973 L8.63682974,6.14279364 Z M6.23850161,8.55388433 L4.56399071,8.88254457 L5.93067797,7.83852283 L7.63139004,7.59465502 L6.23850161,8.55388433 Z M3.27688848,7.78649292 L3.2884867,7.75856715 L4.52488927,7.21573636 L5.78645137,7.77564507 L5.79800953,7.80331208 L4.52685236,8.77434465 L3.27688848,7.78649292 Z M1.31674881,5.91538671 L2.42350769,6.36245779 L2.5619452,6.41844866 L3.08592845,7.67865128 L3.07591271,7.70273552 L1.49799357,7.50560307 L1.29148912,5.92571705 L1.31674881,5.91538671 Z M1.78648684,4.47069088 L1.23504043,5.71465157 L1.2070765,5.72605675 L0.227116834,4.49877588 L1.20795788,3.2387723 L1.23538097,3.25001825 L1.78648684,4.47069088 Z M2.58259764,2.54275781 L1.31712941,3.04928311 L1.28990663,3.03809688 L1.46313881,1.47246236 L3.06551638,1.25170348 L3.07663385,1.27841508 L2.58259764,2.54275781 Z M2.72099509,2.48871756 L3.19401828,1.27714121 L4.3896568,1.83726886 L2.72099509,2.48871756 Z M1.31704928,3.16640017 L2.52578839,2.68268523 L1.84443789,4.33349036 L1.31704928,3.16640017 Z M2.50621764,6.27802363 L1.31704928,5.79820994 L1.84413741,4.6101605 L2.50621764,6.27802363 Z M4.3857707,7.15771525 L3.20445467,7.67707884 L2.70529041,6.47650958 L4.3857707,7.15771525 Z M6.3587906,2.61572707 L7.16177221,4.47574658 L6.38491164,6.345977 L4.52512965,7.09726581 L2.64619757,6.33560685 L1.90573419,4.47029279 L2.66687005,2.62615694 L4.52508959,1.90072385 L6.3587906,2.61572707 Z M6.30851161,2.47982033 L4.66100313,1.83738829 L5.86351245,1.27714121 L6.30851161,2.47982033 Z M7.74584988,3.07647242 L6.4442048,2.53282555 L5.98045618,1.2794103 L5.99197428,1.25168357 L7.60124268,1.47266141 L7.77134994,3.0662416 L7.74584988,3.07647242 Z M7.28079921,4.47688112 L7.82533476,3.27812315 L7.85359917,3.26675778 L8.8231024,4.48333013 L7.83537053,5.74689658 L7.81035122,5.73644681 L7.28079921,4.47688112 Z M6.50341783,2.6761168 L7.74398695,3.19402738 L7.2224876,4.34175065 L6.50341783,2.6761168 Z M7.72659963,5.81893034 L6.52593321,6.29026479 L6.52577296,6.29066288 L6.52575292,6.29066288 L7.22106536,4.61678864 L7.72659963,5.81893034 Z M5.87046337,7.6943757 L4.66350706,7.15823276 L6.33212871,6.48419265 L6.33204859,6.48421255 L5.87046337,7.6943757 Z M6.4697249,6.42909747 L7.72535768,5.93584836 L7.75290096,5.94733315 L7.579809,7.49264535 L5.99888514,7.71935563 L5.98768754,7.6925445 L6.4697249,6.42909747 Z M2.77620182,8.52552066 L1.44669297,7.60830939 L3.14488107,7.82048951 L4.48833183,8.882246 L2.77620182,8.52552066 Z M1.3373011,7.6640216 L2.73243306,8.62649531 L4.52512965,9 L6.2817095,8.65523716 L7.74188365,7.64965068 L8.73943094,6.18435387 L9.05027933,4.48203635 L8.71775689,2.75818234 L7.76357773,1.31444192 L6.24555269,0.316040897 L4.54682373,0 L2.79747525,0.316040897 L1.30116432,1.31444192 L0.32529108,2.77973872 L0,4.50000995 L0.332502411,6.16281739 L1.3373011,7.6640216 Z" id="Fill-15" fill="#323C47"></path>
                                </g>
                                <g id="Group-19-Copy-10" transform="translate(27.905028, 51.250000) rotate(90.000000) translate(-27.905028, -51.250000) translate(23.379888, 46.750000)">
                                    <ellipse id="Oval-7" fill="#FFFFFF" fill-rule="nonzero" cx="4.52513966" cy="4.5" rx="4.52513966" ry="4.5"></ellipse>
                                    <path d="M1.17266243,5.85718646 L1.39459111,7.55504542 L0.434682951,6.12089888 L0.117744995,4.53599697 L1.17266243,5.85718646 Z M0.427812156,2.8210203 L1.35901521,1.42280107 L1.17266243,3.10710518 L0.117364397,4.46280877 L0.427812156,2.8210203 Z M2.83914071,0.418010762 L4.5087439,0.116380597 L3.14061437,1.13605934 L3.13398395,1.13297417 L1.41209862,1.37019393 L2.83914071,0.418010762 Z M5.79073811,1.1685432 L5.77893957,1.19696658 L4.52520977,1.78107895 L3.27540615,1.19557328 L3.26663236,1.17750015 L4.54598241,0.223983387 L5.79073811,1.1685432 Z M6.20402745,0.417931144 L7.65216268,1.37035317 L5.92340655,1.13297417 L4.58386193,0.116500023 L6.20402745,0.417931144 Z M8.61529591,2.79946391 L8.93309522,4.44696492 L7.8883738,3.13598636 L7.70548646,1.42282097 L8.61529591,2.79946391 Z M8.63682974,6.14279364 L7.68385247,7.54260521 L7.87018523,5.87884236 L8.93335563,4.51877973 L8.63682974,6.14279364 Z M6.23850161,8.55388433 L4.56399071,8.88254457 L5.93067797,7.83852283 L7.63139004,7.59465502 L6.23850161,8.55388433 Z M3.27688848,7.78649292 L3.2884867,7.75856715 L4.52488927,7.21573636 L5.78645137,7.77564507 L5.79800953,7.80331208 L4.52685236,8.77434465 L3.27688848,7.78649292 Z M1.31674881,5.91538671 L2.42350769,6.36245779 L2.5619452,6.41844866 L3.08592845,7.67865128 L3.07591271,7.70273552 L1.49799357,7.50560307 L1.29148912,5.92571705 L1.31674881,5.91538671 Z M1.78648684,4.47069088 L1.23504043,5.71465157 L1.2070765,5.72605675 L0.227116834,4.49877588 L1.20795788,3.2387723 L1.23538097,3.25001825 L1.78648684,4.47069088 Z M2.58259764,2.54275781 L1.31712941,3.04928311 L1.28990663,3.03809688 L1.46313881,1.47246236 L3.06551638,1.25170348 L3.07663385,1.27841508 L2.58259764,2.54275781 Z M2.72099509,2.48871756 L3.19401828,1.27714121 L4.3896568,1.83726886 L2.72099509,2.48871756 Z M1.31704928,3.16640017 L2.52578839,2.68268523 L1.84443789,4.33349036 L1.31704928,3.16640017 Z M2.50621764,6.27802363 L1.31704928,5.79820994 L1.84413741,4.6101605 L2.50621764,6.27802363 Z M4.3857707,7.15771525 L3.20445467,7.67707884 L2.70529041,6.47650958 L4.3857707,7.15771525 Z M6.3587906,2.61572707 L7.16177221,4.47574658 L6.38491164,6.345977 L4.52512965,7.09726581 L2.64619757,6.33560685 L1.90573419,4.47029279 L2.66687005,2.62615694 L4.52508959,1.90072385 L6.3587906,2.61572707 Z M6.30851161,2.47982033 L4.66100313,1.83738829 L5.86351245,1.27714121 L6.30851161,2.47982033 Z M7.74584988,3.07647242 L6.4442048,2.53282555 L5.98045618,1.2794103 L5.99197428,1.25168357 L7.60124268,1.47266141 L7.77134994,3.0662416 L7.74584988,3.07647242 Z M7.28079921,4.47688112 L7.82533476,3.27812315 L7.85359917,3.26675778 L8.8231024,4.48333013 L7.83537053,5.74689658 L7.81035122,5.73644681 L7.28079921,4.47688112 Z M6.50341783,2.6761168 L7.74398695,3.19402738 L7.2224876,4.34175065 L6.50341783,2.6761168 Z M7.72659963,5.81893034 L6.52593321,6.29026479 L6.52577296,6.29066288 L6.52575292,6.29066288 L7.22106536,4.61678864 L7.72659963,5.81893034 Z M5.87046337,7.6943757 L4.66350706,7.15823276 L6.33212871,6.48419265 L6.33204859,6.48421255 L5.87046337,7.6943757 Z M6.4697249,6.42909747 L7.72535768,5.93584836 L7.75290096,5.94733315 L7.579809,7.49264535 L5.99888514,7.71935563 L5.98768754,7.6925445 L6.4697249,6.42909747 Z M2.77620182,8.52552066 L1.44669297,7.60830939 L3.14488107,7.82048951 L4.48833183,8.882246 L2.77620182,8.52552066 Z M1.3373011,7.6640216 L2.73243306,8.62649531 L4.52512965,9 L6.2817095,8.65523716 L7.74188365,7.64965068 L8.73943094,6.18435387 L9.05027933,4.48203635 L8.71775689,2.75818234 L7.76357773,1.31444192 L6.24555269,0.316040897 L4.54682373,0 L2.79747525,0.316040897 L1.30116432,1.31444192 L0.32529108,2.77973872 L0,4.50000995 L0.332502411,6.16281739 L1.3373011,7.6640216 Z" id="Fill-15" fill="#323C47"></path>
                                </g>
                                <g id="Group-19-Copy-8" transform="translate(11.372950, 11.559767) rotate(45.000000) translate(-11.372950, -11.559767) translate(6.847811, 7.059767)">
                                    <ellipse id="Oval-7" fill="#FFFFFF" fill-rule="nonzero" cx="4.52513966" cy="4.5" rx="4.52513966" ry="4.5"></ellipse>
                                    <path d="M1.17266243,5.85718646 L1.39459111,7.55504542 L0.434682951,6.12089888 L0.117744995,4.53599697 L1.17266243,5.85718646 Z M0.427812156,2.8210203 L1.35901521,1.42280107 L1.17266243,3.10710518 L0.117364397,4.46280877 L0.427812156,2.8210203 Z M2.83914071,0.418010762 L4.5087439,0.116380597 L3.14061437,1.13605934 L3.13398395,1.13297417 L1.41209862,1.37019393 L2.83914071,0.418010762 Z M5.79073811,1.1685432 L5.77893957,1.19696658 L4.52520977,1.78107895 L3.27540615,1.19557328 L3.26663236,1.17750015 L4.54598241,0.223983387 L5.79073811,1.1685432 Z M6.20402745,0.417931144 L7.65216268,1.37035317 L5.92340655,1.13297417 L4.58386193,0.116500023 L6.20402745,0.417931144 Z M8.61529591,2.79946391 L8.93309522,4.44696492 L7.8883738,3.13598636 L7.70548646,1.42282097 L8.61529591,2.79946391 Z M8.63682974,6.14279364 L7.68385247,7.54260521 L7.87018523,5.87884236 L8.93335563,4.51877973 L8.63682974,6.14279364 Z M6.23850161,8.55388433 L4.56399071,8.88254457 L5.93067797,7.83852283 L7.63139004,7.59465502 L6.23850161,8.55388433 Z M3.27688848,7.78649292 L3.2884867,7.75856715 L4.52488927,7.21573636 L5.78645137,7.77564507 L5.79800953,7.80331208 L4.52685236,8.77434465 L3.27688848,7.78649292 Z M1.31674881,5.91538671 L2.42350769,6.36245779 L2.5619452,6.41844866 L3.08592845,7.67865128 L3.07591271,7.70273552 L1.49799357,7.50560307 L1.29148912,5.92571705 L1.31674881,5.91538671 Z M1.78648684,4.47069088 L1.23504043,5.71465157 L1.2070765,5.72605675 L0.227116834,4.49877588 L1.20795788,3.2387723 L1.23538097,3.25001825 L1.78648684,4.47069088 Z M2.58259764,2.54275781 L1.31712941,3.04928311 L1.28990663,3.03809688 L1.46313881,1.47246236 L3.06551638,1.25170348 L3.07663385,1.27841508 L2.58259764,2.54275781 Z M2.72099509,2.48871756 L3.19401828,1.27714121 L4.3896568,1.83726886 L2.72099509,2.48871756 Z M1.31704928,3.16640017 L2.52578839,2.68268523 L1.84443789,4.33349036 L1.31704928,3.16640017 Z M2.50621764,6.27802363 L1.31704928,5.79820994 L1.84413741,4.6101605 L2.50621764,6.27802363 Z M4.3857707,7.15771525 L3.20445467,7.67707884 L2.70529041,6.47650958 L4.3857707,7.15771525 Z M6.3587906,2.61572707 L7.16177221,4.47574658 L6.38491164,6.345977 L4.52512965,7.09726581 L2.64619757,6.33560685 L1.90573419,4.47029279 L2.66687005,2.62615694 L4.52508959,1.90072385 L6.3587906,2.61572707 Z M6.30851161,2.47982033 L4.66100313,1.83738829 L5.86351245,1.27714121 L6.30851161,2.47982033 Z M7.74584988,3.07647242 L6.4442048,2.53282555 L5.98045618,1.2794103 L5.99197428,1.25168357 L7.60124268,1.47266141 L7.77134994,3.0662416 L7.74584988,3.07647242 Z M7.28079921,4.47688112 L7.82533476,3.27812315 L7.85359917,3.26675778 L8.8231024,4.48333013 L7.83537053,5.74689658 L7.81035122,5.73644681 L7.28079921,4.47688112 Z M6.50341783,2.6761168 L7.74398695,3.19402738 L7.2224876,4.34175065 L6.50341783,2.6761168 Z M7.72659963,5.81893034 L6.52593321,6.29026479 L6.52577296,6.29066288 L6.52575292,6.29066288 L7.22106536,4.61678864 L7.72659963,5.81893034 Z M5.87046337,7.6943757 L4.66350706,7.15823276 L6.33212871,6.48419265 L6.33204859,6.48421255 L5.87046337,7.6943757 Z M6.4697249,6.42909747 L7.72535768,5.93584836 L7.75290096,5.94733315 L7.579809,7.49264535 L5.99888514,7.71935563 L5.98768754,7.6925445 L6.4697249,6.42909747 Z M2.77620182,8.52552066 L1.44669297,7.60830939 L3.14488107,7.82048951 L4.48833183,8.882246 L2.77620182,8.52552066 Z M1.3373011,7.6640216 L2.73243306,8.62649531 L4.52512965,9 L6.2817095,8.65523716 L7.74188365,7.64965068 L8.73943094,6.18435387 L9.05027933,4.48203635 L8.71775689,2.75818234 L7.76357773,1.31444192 L6.24555269,0.316040897 L4.54682373,0 L2.79747525,0.316040897 L1.30116432,1.31444192 L0.32529108,2.77973872 L0,4.50000995 L0.332502411,6.16281739 L1.3373011,7.6640216 Z" id="Fill-15" fill="#323C47"></path>
                                </g>
                                <g id="Group-19-Copy-10" transform="translate(44.437105, 44.440233) rotate(45.000000) translate(-44.437105, -44.440233) translate(39.911966, 39.940233)">
                                    <ellipse id="Oval-7" fill="#FFFFFF" fill-rule="nonzero" cx="4.52513966" cy="4.5" rx="4.52513966" ry="4.5"></ellipse>
                                    <path d="M1.17266243,5.85718646 L1.39459111,7.55504542 L0.434682951,6.12089888 L0.117744995,4.53599697 L1.17266243,5.85718646 Z M0.427812156,2.8210203 L1.35901521,1.42280107 L1.17266243,3.10710518 L0.117364397,4.46280877 L0.427812156,2.8210203 Z M2.83914071,0.418010762 L4.5087439,0.116380597 L3.14061437,1.13605934 L3.13398395,1.13297417 L1.41209862,1.37019393 L2.83914071,0.418010762 Z M5.79073811,1.1685432 L5.77893957,1.19696658 L4.52520977,1.78107895 L3.27540615,1.19557328 L3.26663236,1.17750015 L4.54598241,0.223983387 L5.79073811,1.1685432 Z M6.20402745,0.417931144 L7.65216268,1.37035317 L5.92340655,1.13297417 L4.58386193,0.116500023 L6.20402745,0.417931144 Z M8.61529591,2.79946391 L8.93309522,4.44696492 L7.8883738,3.13598636 L7.70548646,1.42282097 L8.61529591,2.79946391 Z M8.63682974,6.14279364 L7.68385247,7.54260521 L7.87018523,5.87884236 L8.93335563,4.51877973 L8.63682974,6.14279364 Z M6.23850161,8.55388433 L4.56399071,8.88254457 L5.93067797,7.83852283 L7.63139004,7.59465502 L6.23850161,8.55388433 Z M3.27688848,7.78649292 L3.2884867,7.75856715 L4.52488927,7.21573636 L5.78645137,7.77564507 L5.79800953,7.80331208 L4.52685236,8.77434465 L3.27688848,7.78649292 Z M1.31674881,5.91538671 L2.42350769,6.36245779 L2.5619452,6.41844866 L3.08592845,7.67865128 L3.07591271,7.70273552 L1.49799357,7.50560307 L1.29148912,5.92571705 L1.31674881,5.91538671 Z M1.78648684,4.47069088 L1.23504043,5.71465157 L1.2070765,5.72605675 L0.227116834,4.49877588 L1.20795788,3.2387723 L1.23538097,3.25001825 L1.78648684,4.47069088 Z M2.58259764,2.54275781 L1.31712941,3.04928311 L1.28990663,3.03809688 L1.46313881,1.47246236 L3.06551638,1.25170348 L3.07663385,1.27841508 L2.58259764,2.54275781 Z M2.72099509,2.48871756 L3.19401828,1.27714121 L4.3896568,1.83726886 L2.72099509,2.48871756 Z M1.31704928,3.16640017 L2.52578839,2.68268523 L1.84443789,4.33349036 L1.31704928,3.16640017 Z M2.50621764,6.27802363 L1.31704928,5.79820994 L1.84413741,4.6101605 L2.50621764,6.27802363 Z M4.3857707,7.15771525 L3.20445467,7.67707884 L2.70529041,6.47650958 L4.3857707,7.15771525 Z M6.3587906,2.61572707 L7.16177221,4.47574658 L6.38491164,6.345977 L4.52512965,7.09726581 L2.64619757,6.33560685 L1.90573419,4.47029279 L2.66687005,2.62615694 L4.52508959,1.90072385 L6.3587906,2.61572707 Z M6.30851161,2.47982033 L4.66100313,1.83738829 L5.86351245,1.27714121 L6.30851161,2.47982033 Z M7.74584988,3.07647242 L6.4442048,2.53282555 L5.98045618,1.2794103 L5.99197428,1.25168357 L7.60124268,1.47266141 L7.77134994,3.0662416 L7.74584988,3.07647242 Z M7.28079921,4.47688112 L7.82533476,3.27812315 L7.85359917,3.26675778 L8.8231024,4.48333013 L7.83537053,5.74689658 L7.81035122,5.73644681 L7.28079921,4.47688112 Z M6.50341783,2.6761168 L7.74398695,3.19402738 L7.2224876,4.34175065 L6.50341783,2.6761168 Z M7.72659963,5.81893034 L6.52593321,6.29026479 L6.52577296,6.29066288 L6.52575292,6.29066288 L7.22106536,4.61678864 L7.72659963,5.81893034 Z M5.87046337,7.6943757 L4.66350706,7.15823276 L6.33212871,6.48419265 L6.33204859,6.48421255 L5.87046337,7.6943757 Z M6.4697249,6.42909747 L7.72535768,5.93584836 L7.75290096,5.94733315 L7.579809,7.49264535 L5.99888514,7.71935563 L5.98768754,7.6925445 L6.4697249,6.42909747 Z M2.77620182,8.52552066 L1.44669297,7.60830939 L3.14488107,7.82048951 L4.48833183,8.882246 L2.77620182,8.52552066 Z M1.3373011,7.6640216 L2.73243306,8.62649531 L4.52512965,9 L6.2817095,8.65523716 L7.74188365,7.64965068 L8.73943094,6.18435387 L9.05027933,4.48203635 L8.71775689,2.75818234 L7.76357773,1.31444192 L6.24555269,0.316040897 L4.54682373,0 L2.79747525,0.316040897 L1.30116432,1.31444192 L0.32529108,2.77973872 L0,4.50000995 L0.332502411,6.16281739 L1.3373011,7.6640216 Z" id="Fill-15" fill="#323C47"></path>
                                </g>
                                <g id="Group-19-Copy-8" transform="translate(6.383727, 18.915501) rotate(23.000000) translate(-6.383727, -18.915501) translate(1.858588, 14.415501)">
                                    <ellipse id="Oval-7" fill="#FFFFFF" fill-rule="nonzero" cx="4.52513966" cy="4.5" rx="4.52513966" ry="4.5"></ellipse>
                                    <path d="M1.17266243,5.85718646 L1.39459111,7.55504542 L0.434682951,6.12089888 L0.117744995,4.53599697 L1.17266243,5.85718646 Z M0.427812156,2.8210203 L1.35901521,1.42280107 L1.17266243,3.10710518 L0.117364397,4.46280877 L0.427812156,2.8210203 Z M2.83914071,0.418010762 L4.5087439,0.116380597 L3.14061437,1.13605934 L3.13398395,1.13297417 L1.41209862,1.37019393 L2.83914071,0.418010762 Z M5.79073811,1.1685432 L5.77893957,1.19696658 L4.52520977,1.78107895 L3.27540615,1.19557328 L3.26663236,1.17750015 L4.54598241,0.223983387 L5.79073811,1.1685432 Z M6.20402745,0.417931144 L7.65216268,1.37035317 L5.92340655,1.13297417 L4.58386193,0.116500023 L6.20402745,0.417931144 Z M8.61529591,2.79946391 L8.93309522,4.44696492 L7.8883738,3.13598636 L7.70548646,1.42282097 L8.61529591,2.79946391 Z M8.63682974,6.14279364 L7.68385247,7.54260521 L7.87018523,5.87884236 L8.93335563,4.51877973 L8.63682974,6.14279364 Z M6.23850161,8.55388433 L4.56399071,8.88254457 L5.93067797,7.83852283 L7.63139004,7.59465502 L6.23850161,8.55388433 Z M3.27688848,7.78649292 L3.2884867,7.75856715 L4.52488927,7.21573636 L5.78645137,7.77564507 L5.79800953,7.80331208 L4.52685236,8.77434465 L3.27688848,7.78649292 Z M1.31674881,5.91538671 L2.42350769,6.36245779 L2.5619452,6.41844866 L3.08592845,7.67865128 L3.07591271,7.70273552 L1.49799357,7.50560307 L1.29148912,5.92571705 L1.31674881,5.91538671 Z M1.78648684,4.47069088 L1.23504043,5.71465157 L1.2070765,5.72605675 L0.227116834,4.49877588 L1.20795788,3.2387723 L1.23538097,3.25001825 L1.78648684,4.47069088 Z M2.58259764,2.54275781 L1.31712941,3.04928311 L1.28990663,3.03809688 L1.46313881,1.47246236 L3.06551638,1.25170348 L3.07663385,1.27841508 L2.58259764,2.54275781 Z M2.72099509,2.48871756 L3.19401828,1.27714121 L4.3896568,1.83726886 L2.72099509,2.48871756 Z M1.31704928,3.16640017 L2.52578839,2.68268523 L1.84443789,4.33349036 L1.31704928,3.16640017 Z M2.50621764,6.27802363 L1.31704928,5.79820994 L1.84413741,4.6101605 L2.50621764,6.27802363 Z M4.3857707,7.15771525 L3.20445467,7.67707884 L2.70529041,6.47650958 L4.3857707,7.15771525 Z M6.3587906,2.61572707 L7.16177221,4.47574658 L6.38491164,6.345977 L4.52512965,7.09726581 L2.64619757,6.33560685 L1.90573419,4.47029279 L2.66687005,2.62615694 L4.52508959,1.90072385 L6.3587906,2.61572707 Z M6.30851161,2.47982033 L4.66100313,1.83738829 L5.86351245,1.27714121 L6.30851161,2.47982033 Z M7.74584988,3.07647242 L6.4442048,2.53282555 L5.98045618,1.2794103 L5.99197428,1.25168357 L7.60124268,1.47266141 L7.77134994,3.0662416 L7.74584988,3.07647242 Z M7.28079921,4.47688112 L7.82533476,3.27812315 L7.85359917,3.26675778 L8.8231024,4.48333013 L7.83537053,5.74689658 L7.81035122,5.73644681 L7.28079921,4.47688112 Z M6.50341783,2.6761168 L7.74398695,3.19402738 L7.2224876,4.34175065 L6.50341783,2.6761168 Z M7.72659963,5.81893034 L6.52593321,6.29026479 L6.52577296,6.29066288 L6.52575292,6.29066288 L7.22106536,4.61678864 L7.72659963,5.81893034 Z M5.87046337,7.6943757 L4.66350706,7.15823276 L6.33212871,6.48419265 L6.33204859,6.48421255 L5.87046337,7.6943757 Z M6.4697249,6.42909747 L7.72535768,5.93584836 L7.75290096,5.94733315 L7.579809,7.49264535 L5.99888514,7.71935563 L5.98768754,7.6925445 L6.4697249,6.42909747 Z M2.77620182,8.52552066 L1.44669297,7.60830939 L3.14488107,7.82048951 L4.48833183,8.882246 L2.77620182,8.52552066 Z M1.3373011,7.6640216 L2.73243306,8.62649531 L4.52512965,9 L6.2817095,8.65523716 L7.74188365,7.64965068 L8.73943094,6.18435387 L9.05027933,4.48203635 L8.71775689,2.75818234 L7.76357773,1.31444192 L6.24555269,0.316040897 L4.54682373,0 L2.79747525,0.316040897 L1.30116432,1.31444192 L0.32529108,2.77973872 L0,4.50000995 L0.332502411,6.16281739 L1.3373011,7.6640216 Z" id="Fill-15" fill="#323C47"></path>
                                </g>
                                <g id="Group-19-Copy-10" transform="translate(49.426329, 37.084499) rotate(23.000000) translate(-49.426329, -37.084499) translate(44.901189, 32.584499)">
                                    <ellipse id="Oval-7" fill="#FFFFFF" fill-rule="nonzero" cx="4.52513966" cy="4.5" rx="4.52513966" ry="4.5"></ellipse>
                                    <path d="M1.17266243,5.85718646 L1.39459111,7.55504542 L0.434682951,6.12089888 L0.117744995,4.53599697 L1.17266243,5.85718646 Z M0.427812156,2.8210203 L1.35901521,1.42280107 L1.17266243,3.10710518 L0.117364397,4.46280877 L0.427812156,2.8210203 Z M2.83914071,0.418010762 L4.5087439,0.116380597 L3.14061437,1.13605934 L3.13398395,1.13297417 L1.41209862,1.37019393 L2.83914071,0.418010762 Z M5.79073811,1.1685432 L5.77893957,1.19696658 L4.52520977,1.78107895 L3.27540615,1.19557328 L3.26663236,1.17750015 L4.54598241,0.223983387 L5.79073811,1.1685432 Z M6.20402745,0.417931144 L7.65216268,1.37035317 L5.92340655,1.13297417 L4.58386193,0.116500023 L6.20402745,0.417931144 Z M8.61529591,2.79946391 L8.93309522,4.44696492 L7.8883738,3.13598636 L7.70548646,1.42282097 L8.61529591,2.79946391 Z M8.63682974,6.14279364 L7.68385247,7.54260521 L7.87018523,5.87884236 L8.93335563,4.51877973 L8.63682974,6.14279364 Z M6.23850161,8.55388433 L4.56399071,8.88254457 L5.93067797,7.83852283 L7.63139004,7.59465502 L6.23850161,8.55388433 Z M3.27688848,7.78649292 L3.2884867,7.75856715 L4.52488927,7.21573636 L5.78645137,7.77564507 L5.79800953,7.80331208 L4.52685236,8.77434465 L3.27688848,7.78649292 Z M1.31674881,5.91538671 L2.42350769,6.36245779 L2.5619452,6.41844866 L3.08592845,7.67865128 L3.07591271,7.70273552 L1.49799357,7.50560307 L1.29148912,5.92571705 L1.31674881,5.91538671 Z M1.78648684,4.47069088 L1.23504043,5.71465157 L1.2070765,5.72605675 L0.227116834,4.49877588 L1.20795788,3.2387723 L1.23538097,3.25001825 L1.78648684,4.47069088 Z M2.58259764,2.54275781 L1.31712941,3.04928311 L1.28990663,3.03809688 L1.46313881,1.47246236 L3.06551638,1.25170348 L3.07663385,1.27841508 L2.58259764,2.54275781 Z M2.72099509,2.48871756 L3.19401828,1.27714121 L4.3896568,1.83726886 L2.72099509,2.48871756 Z M1.31704928,3.16640017 L2.52578839,2.68268523 L1.84443789,4.33349036 L1.31704928,3.16640017 Z M2.50621764,6.27802363 L1.31704928,5.79820994 L1.84413741,4.6101605 L2.50621764,6.27802363 Z M4.3857707,7.15771525 L3.20445467,7.67707884 L2.70529041,6.47650958 L4.3857707,7.15771525 Z M6.3587906,2.61572707 L7.16177221,4.47574658 L6.38491164,6.345977 L4.52512965,7.09726581 L2.64619757,6.33560685 L1.90573419,4.47029279 L2.66687005,2.62615694 L4.52508959,1.90072385 L6.3587906,2.61572707 Z M6.30851161,2.47982033 L4.66100313,1.83738829 L5.86351245,1.27714121 L6.30851161,2.47982033 Z M7.74584988,3.07647242 L6.4442048,2.53282555 L5.98045618,1.2794103 L5.99197428,1.25168357 L7.60124268,1.47266141 L7.77134994,3.0662416 L7.74584988,3.07647242 Z M7.28079921,4.47688112 L7.82533476,3.27812315 L7.85359917,3.26675778 L8.8231024,4.48333013 L7.83537053,5.74689658 L7.81035122,5.73644681 L7.28079921,4.47688112 Z M6.50341783,2.6761168 L7.74398695,3.19402738 L7.2224876,4.34175065 L6.50341783,2.6761168 Z M7.72659963,5.81893034 L6.52593321,6.29026479 L6.52577296,6.29066288 L6.52575292,6.29066288 L7.22106536,4.61678864 L7.72659963,5.81893034 Z M5.87046337,7.6943757 L4.66350706,7.15823276 L6.33212871,6.48419265 L6.33204859,6.48421255 L5.87046337,7.6943757 Z M6.4697249,6.42909747 L7.72535768,5.93584836 L7.75290096,5.94733315 L7.579809,7.49264535 L5.99888514,7.71935563 L5.98768754,7.6925445 L6.4697249,6.42909747 Z M2.77620182,8.52552066 L1.44669297,7.60830939 L3.14488107,7.82048951 L4.48833183,8.882246 L2.77620182,8.52552066 Z M1.3373011,7.6640216 L2.73243306,8.62649531 L4.52512965,9 L6.2817095,8.65523716 L7.74188365,7.64965068 L8.73943094,6.18435387 L9.05027933,4.48203635 L8.71775689,2.75818234 L7.76357773,1.31444192 L6.24555269,0.316040897 L4.54682373,0 L2.79747525,0.316040897 L1.30116432,1.31444192 L0.32529108,2.77973872 L0,4.50000995 L0.332502411,6.16281739 L1.3373011,7.6640216 Z" id="Fill-15" fill="#323C47"></path>
                                </g>
                                <g id="Group-19-Copy-8" transform="translate(49.582483, 19.290397) rotate(158.000000) translate(-49.582483, -19.290397) translate(45.057343, 14.790397)">
                                    <ellipse id="Oval-7" fill="#FFFFFF" fill-rule="nonzero" cx="4.52513966" cy="4.5" rx="4.52513966" ry="4.5"></ellipse>
                                    <path d="M1.17266243,5.85718646 L1.39459111,7.55504542 L0.434682951,6.12089888 L0.117744995,4.53599697 L1.17266243,5.85718646 Z M0.427812156,2.8210203 L1.35901521,1.42280107 L1.17266243,3.10710518 L0.117364397,4.46280877 L0.427812156,2.8210203 Z M2.83914071,0.418010762 L4.5087439,0.116380597 L3.14061437,1.13605934 L3.13398395,1.13297417 L1.41209862,1.37019393 L2.83914071,0.418010762 Z M5.79073811,1.1685432 L5.77893957,1.19696658 L4.52520977,1.78107895 L3.27540615,1.19557328 L3.26663236,1.17750015 L4.54598241,0.223983387 L5.79073811,1.1685432 Z M6.20402745,0.417931144 L7.65216268,1.37035317 L5.92340655,1.13297417 L4.58386193,0.116500023 L6.20402745,0.417931144 Z M8.61529591,2.79946391 L8.93309522,4.44696492 L7.8883738,3.13598636 L7.70548646,1.42282097 L8.61529591,2.79946391 Z M8.63682974,6.14279364 L7.68385247,7.54260521 L7.87018523,5.87884236 L8.93335563,4.51877973 L8.63682974,6.14279364 Z M6.23850161,8.55388433 L4.56399071,8.88254457 L5.93067797,7.83852283 L7.63139004,7.59465502 L6.23850161,8.55388433 Z M3.27688848,7.78649292 L3.2884867,7.75856715 L4.52488927,7.21573636 L5.78645137,7.77564507 L5.79800953,7.80331208 L4.52685236,8.77434465 L3.27688848,7.78649292 Z M1.31674881,5.91538671 L2.42350769,6.36245779 L2.5619452,6.41844866 L3.08592845,7.67865128 L3.07591271,7.70273552 L1.49799357,7.50560307 L1.29148912,5.92571705 L1.31674881,5.91538671 Z M1.78648684,4.47069088 L1.23504043,5.71465157 L1.2070765,5.72605675 L0.227116834,4.49877588 L1.20795788,3.2387723 L1.23538097,3.25001825 L1.78648684,4.47069088 Z M2.58259764,2.54275781 L1.31712941,3.04928311 L1.28990663,3.03809688 L1.46313881,1.47246236 L3.06551638,1.25170348 L3.07663385,1.27841508 L2.58259764,2.54275781 Z M2.72099509,2.48871756 L3.19401828,1.27714121 L4.3896568,1.83726886 L2.72099509,2.48871756 Z M1.31704928,3.16640017 L2.52578839,2.68268523 L1.84443789,4.33349036 L1.31704928,3.16640017 Z M2.50621764,6.27802363 L1.31704928,5.79820994 L1.84413741,4.6101605 L2.50621764,6.27802363 Z M4.3857707,7.15771525 L3.20445467,7.67707884 L2.70529041,6.47650958 L4.3857707,7.15771525 Z M6.3587906,2.61572707 L7.16177221,4.47574658 L6.38491164,6.345977 L4.52512965,7.09726581 L2.64619757,6.33560685 L1.90573419,4.47029279 L2.66687005,2.62615694 L4.52508959,1.90072385 L6.3587906,2.61572707 Z M6.30851161,2.47982033 L4.66100313,1.83738829 L5.86351245,1.27714121 L6.30851161,2.47982033 Z M7.74584988,3.07647242 L6.4442048,2.53282555 L5.98045618,1.2794103 L5.99197428,1.25168357 L7.60124268,1.47266141 L7.77134994,3.0662416 L7.74584988,3.07647242 Z M7.28079921,4.47688112 L7.82533476,3.27812315 L7.85359917,3.26675778 L8.8231024,4.48333013 L7.83537053,5.74689658 L7.81035122,5.73644681 L7.28079921,4.47688112 Z M6.50341783,2.6761168 L7.74398695,3.19402738 L7.2224876,4.34175065 L6.50341783,2.6761168 Z M7.72659963,5.81893034 L6.52593321,6.29026479 L6.52577296,6.29066288 L6.52575292,6.29066288 L7.22106536,4.61678864 L7.72659963,5.81893034 Z M5.87046337,7.6943757 L4.66350706,7.15823276 L6.33212871,6.48419265 L6.33204859,6.48421255 L5.87046337,7.6943757 Z M6.4697249,6.42909747 L7.72535768,5.93584836 L7.75290096,5.94733315 L7.579809,7.49264535 L5.99888514,7.71935563 L5.98768754,7.6925445 L6.4697249,6.42909747 Z M2.77620182,8.52552066 L1.44669297,7.60830939 L3.14488107,7.82048951 L4.48833183,8.882246 L2.77620182,8.52552066 Z M1.3373011,7.6640216 L2.73243306,8.62649531 L4.52512965,9 L6.2817095,8.65523716 L7.74188365,7.64965068 L8.73943094,6.18435387 L9.05027933,4.48203635 L8.71775689,2.75818234 L7.76357773,1.31444192 L6.24555269,0.316040897 L4.54682373,0 L2.79747525,0.316040897 L1.30116432,1.31444192 L0.32529108,2.77973872 L0,4.50000995 L0.332502411,6.16281739 L1.3373011,7.6640216 Z" id="Fill-15" fill="#323C47"></path>
                                </g>
                                <g id="Group-19-Copy-10" transform="translate(6.227573, 36.709603) rotate(158.000000) translate(-6.227573, -36.709603) translate(1.702433, 32.209603)">
                                    <ellipse id="Oval-7" fill="#FFFFFF" fill-rule="nonzero" cx="4.52513966" cy="4.5" rx="4.52513966" ry="4.5"></ellipse>
                                    <path d="M1.17266243,5.85718646 L1.39459111,7.55504542 L0.434682951,6.12089888 L0.117744995,4.53599697 L1.17266243,5.85718646 Z M0.427812156,2.8210203 L1.35901521,1.42280107 L1.17266243,3.10710518 L0.117364397,4.46280877 L0.427812156,2.8210203 Z M2.83914071,0.418010762 L4.5087439,0.116380597 L3.14061437,1.13605934 L3.13398395,1.13297417 L1.41209862,1.37019393 L2.83914071,0.418010762 Z M5.79073811,1.1685432 L5.77893957,1.19696658 L4.52520977,1.78107895 L3.27540615,1.19557328 L3.26663236,1.17750015 L4.54598241,0.223983387 L5.79073811,1.1685432 Z M6.20402745,0.417931144 L7.65216268,1.37035317 L5.92340655,1.13297417 L4.58386193,0.116500023 L6.20402745,0.417931144 Z M8.61529591,2.79946391 L8.93309522,4.44696492 L7.8883738,3.13598636 L7.70548646,1.42282097 L8.61529591,2.79946391 Z M8.63682974,6.14279364 L7.68385247,7.54260521 L7.87018523,5.87884236 L8.93335563,4.51877973 L8.63682974,6.14279364 Z M6.23850161,8.55388433 L4.56399071,8.88254457 L5.93067797,7.83852283 L7.63139004,7.59465502 L6.23850161,8.55388433 Z M3.27688848,7.78649292 L3.2884867,7.75856715 L4.52488927,7.21573636 L5.78645137,7.77564507 L5.79800953,7.80331208 L4.52685236,8.77434465 L3.27688848,7.78649292 Z M1.31674881,5.91538671 L2.42350769,6.36245779 L2.5619452,6.41844866 L3.08592845,7.67865128 L3.07591271,7.70273552 L1.49799357,7.50560307 L1.29148912,5.92571705 L1.31674881,5.91538671 Z M1.78648684,4.47069088 L1.23504043,5.71465157 L1.2070765,5.72605675 L0.227116834,4.49877588 L1.20795788,3.2387723 L1.23538097,3.25001825 L1.78648684,4.47069088 Z M2.58259764,2.54275781 L1.31712941,3.04928311 L1.28990663,3.03809688 L1.46313881,1.47246236 L3.06551638,1.25170348 L3.07663385,1.27841508 L2.58259764,2.54275781 Z M2.72099509,2.48871756 L3.19401828,1.27714121 L4.3896568,1.83726886 L2.72099509,2.48871756 Z M1.31704928,3.16640017 L2.52578839,2.68268523 L1.84443789,4.33349036 L1.31704928,3.16640017 Z M2.50621764,6.27802363 L1.31704928,5.79820994 L1.84413741,4.6101605 L2.50621764,6.27802363 Z M4.3857707,7.15771525 L3.20445467,7.67707884 L2.70529041,6.47650958 L4.3857707,7.15771525 Z M6.3587906,2.61572707 L7.16177221,4.47574658 L6.38491164,6.345977 L4.52512965,7.09726581 L2.64619757,6.33560685 L1.90573419,4.47029279 L2.66687005,2.62615694 L4.52508959,1.90072385 L6.3587906,2.61572707 Z M6.30851161,2.47982033 L4.66100313,1.83738829 L5.86351245,1.27714121 L6.30851161,2.47982033 Z M7.74584988,3.07647242 L6.4442048,2.53282555 L5.98045618,1.2794103 L5.99197428,1.25168357 L7.60124268,1.47266141 L7.77134994,3.0662416 L7.74584988,3.07647242 Z M7.28079921,4.47688112 L7.82533476,3.27812315 L7.85359917,3.26675778 L8.8231024,4.48333013 L7.83537053,5.74689658 L7.81035122,5.73644681 L7.28079921,4.47688112 Z M6.50341783,2.6761168 L7.74398695,3.19402738 L7.2224876,4.34175065 L6.50341783,2.6761168 Z M7.72659963,5.81893034 L6.52593321,6.29026479 L6.52577296,6.29066288 L6.52575292,6.29066288 L7.22106536,4.61678864 L7.72659963,5.81893034 Z M5.87046337,7.6943757 L4.66350706,7.15823276 L6.33212871,6.48419265 L6.33204859,6.48421255 L5.87046337,7.6943757 Z M6.4697249,6.42909747 L7.72535768,5.93584836 L7.75290096,5.94733315 L7.579809,7.49264535 L5.99888514,7.71935563 L5.98768754,7.6925445 L6.4697249,6.42909747 Z M2.77620182,8.52552066 L1.44669297,7.60830939 L3.14488107,7.82048951 L4.48833183,8.882246 L2.77620182,8.52552066 Z M1.3373011,7.6640216 L2.73243306,8.62649531 L4.52512965,9 L6.2817095,8.65523716 L7.74188365,7.64965068 L8.73943094,6.18435387 L9.05027933,4.48203635 L8.71775689,2.75818234 L7.76357773,1.31444192 L6.24555269,0.316040897 L4.54682373,0 L2.79747525,0.316040897 L1.30116432,1.31444192 L0.32529108,2.77973872 L0,4.50000995 L0.332502411,6.16281739 L1.3373011,7.6640216 Z" id="Fill-15" fill="#323C47"></path>
                                </g>
                                <g id="Group-19-Copy-8" transform="translate(37.040278, 6.598262) rotate(113.000000) translate(-37.040278, -6.598262) translate(32.515138, 2.098262)">
                                    <ellipse id="Oval-7" fill="#FFFFFF" fill-rule="nonzero" cx="4.52513966" cy="4.5" rx="4.52513966" ry="4.5"></ellipse>
                                    <path d="M1.17266243,5.85718646 L1.39459111,7.55504542 L0.434682951,6.12089888 L0.117744995,4.53599697 L1.17266243,5.85718646 Z M0.427812156,2.8210203 L1.35901521,1.42280107 L1.17266243,3.10710518 L0.117364397,4.46280877 L0.427812156,2.8210203 Z M2.83914071,0.418010762 L4.5087439,0.116380597 L3.14061437,1.13605934 L3.13398395,1.13297417 L1.41209862,1.37019393 L2.83914071,0.418010762 Z M5.79073811,1.1685432 L5.77893957,1.19696658 L4.52520977,1.78107895 L3.27540615,1.19557328 L3.26663236,1.17750015 L4.54598241,0.223983387 L5.79073811,1.1685432 Z M6.20402745,0.417931144 L7.65216268,1.37035317 L5.92340655,1.13297417 L4.58386193,0.116500023 L6.20402745,0.417931144 Z M8.61529591,2.79946391 L8.93309522,4.44696492 L7.8883738,3.13598636 L7.70548646,1.42282097 L8.61529591,2.79946391 Z M8.63682974,6.14279364 L7.68385247,7.54260521 L7.87018523,5.87884236 L8.93335563,4.51877973 L8.63682974,6.14279364 Z M6.23850161,8.55388433 L4.56399071,8.88254457 L5.93067797,7.83852283 L7.63139004,7.59465502 L6.23850161,8.55388433 Z M3.27688848,7.78649292 L3.2884867,7.75856715 L4.52488927,7.21573636 L5.78645137,7.77564507 L5.79800953,7.80331208 L4.52685236,8.77434465 L3.27688848,7.78649292 Z M1.31674881,5.91538671 L2.42350769,6.36245779 L2.5619452,6.41844866 L3.08592845,7.67865128 L3.07591271,7.70273552 L1.49799357,7.50560307 L1.29148912,5.92571705 L1.31674881,5.91538671 Z M1.78648684,4.47069088 L1.23504043,5.71465157 L1.2070765,5.72605675 L0.227116834,4.49877588 L1.20795788,3.2387723 L1.23538097,3.25001825 L1.78648684,4.47069088 Z M2.58259764,2.54275781 L1.31712941,3.04928311 L1.28990663,3.03809688 L1.46313881,1.47246236 L3.06551638,1.25170348 L3.07663385,1.27841508 L2.58259764,2.54275781 Z M2.72099509,2.48871756 L3.19401828,1.27714121 L4.3896568,1.83726886 L2.72099509,2.48871756 Z M1.31704928,3.16640017 L2.52578839,2.68268523 L1.84443789,4.33349036 L1.31704928,3.16640017 Z M2.50621764,6.27802363 L1.31704928,5.79820994 L1.84413741,4.6101605 L2.50621764,6.27802363 Z M4.3857707,7.15771525 L3.20445467,7.67707884 L2.70529041,6.47650958 L4.3857707,7.15771525 Z M6.3587906,2.61572707 L7.16177221,4.47574658 L6.38491164,6.345977 L4.52512965,7.09726581 L2.64619757,6.33560685 L1.90573419,4.47029279 L2.66687005,2.62615694 L4.52508959,1.90072385 L6.3587906,2.61572707 Z M6.30851161,2.47982033 L4.66100313,1.83738829 L5.86351245,1.27714121 L6.30851161,2.47982033 Z M7.74584988,3.07647242 L6.4442048,2.53282555 L5.98045618,1.2794103 L5.99197428,1.25168357 L7.60124268,1.47266141 L7.77134994,3.0662416 L7.74584988,3.07647242 Z M7.28079921,4.47688112 L7.82533476,3.27812315 L7.85359917,3.26675778 L8.8231024,4.48333013 L7.83537053,5.74689658 L7.81035122,5.73644681 L7.28079921,4.47688112 Z M6.50341783,2.6761168 L7.74398695,3.19402738 L7.2224876,4.34175065 L6.50341783,2.6761168 Z M7.72659963,5.81893034 L6.52593321,6.29026479 L6.52577296,6.29066288 L6.52575292,6.29066288 L7.22106536,4.61678864 L7.72659963,5.81893034 Z M5.87046337,7.6943757 L4.66350706,7.15823276 L6.33212871,6.48419265 L6.33204859,6.48421255 L5.87046337,7.6943757 Z M6.4697249,6.42909747 L7.72535768,5.93584836 L7.75290096,5.94733315 L7.579809,7.49264535 L5.99888514,7.71935563 L5.98768754,7.6925445 L6.4697249,6.42909747 Z M2.77620182,8.52552066 L1.44669297,7.60830939 L3.14488107,7.82048951 L4.48833183,8.882246 L2.77620182,8.52552066 Z M1.3373011,7.6640216 L2.73243306,8.62649531 L4.52512965,9 L6.2817095,8.65523716 L7.74188365,7.64965068 L8.73943094,6.18435387 L9.05027933,4.48203635 L8.71775689,2.75818234 L7.76357773,1.31444192 L6.24555269,0.316040897 L4.54682373,0 L2.79747525,0.316040897 L1.30116432,1.31444192 L0.32529108,2.77973872 L0,4.50000995 L0.332502411,6.16281739 L1.3373011,7.6640216 Z" id="Fill-15" fill="#323C47"></path>
                                </g>
                                <g id="Group-19-Copy-10" transform="translate(18.769778, 49.401738) rotate(113.000000) translate(-18.769778, -49.401738) translate(14.244638, 44.901738)">
                                    <ellipse id="Oval-7" fill="#FFFFFF" fill-rule="nonzero" cx="4.52513966" cy="4.5" rx="4.52513966" ry="4.5"></ellipse>
                                    <path d="M1.17266243,5.85718646 L1.39459111,7.55504542 L0.434682951,6.12089888 L0.117744995,4.53599697 L1.17266243,5.85718646 Z M0.427812156,2.8210203 L1.35901521,1.42280107 L1.17266243,3.10710518 L0.117364397,4.46280877 L0.427812156,2.8210203 Z M2.83914071,0.418010762 L4.5087439,0.116380597 L3.14061437,1.13605934 L3.13398395,1.13297417 L1.41209862,1.37019393 L2.83914071,0.418010762 Z M5.79073811,1.1685432 L5.77893957,1.19696658 L4.52520977,1.78107895 L3.27540615,1.19557328 L3.26663236,1.17750015 L4.54598241,0.223983387 L5.79073811,1.1685432 Z M6.20402745,0.417931144 L7.65216268,1.37035317 L5.92340655,1.13297417 L4.58386193,0.116500023 L6.20402745,0.417931144 Z M8.61529591,2.79946391 L8.93309522,4.44696492 L7.8883738,3.13598636 L7.70548646,1.42282097 L8.61529591,2.79946391 Z M8.63682974,6.14279364 L7.68385247,7.54260521 L7.87018523,5.87884236 L8.93335563,4.51877973 L8.63682974,6.14279364 Z M6.23850161,8.55388433 L4.56399071,8.88254457 L5.93067797,7.83852283 L7.63139004,7.59465502 L6.23850161,8.55388433 Z M3.27688848,7.78649292 L3.2884867,7.75856715 L4.52488927,7.21573636 L5.78645137,7.77564507 L5.79800953,7.80331208 L4.52685236,8.77434465 L3.27688848,7.78649292 Z M1.31674881,5.91538671 L2.42350769,6.36245779 L2.5619452,6.41844866 L3.08592845,7.67865128 L3.07591271,7.70273552 L1.49799357,7.50560307 L1.29148912,5.92571705 L1.31674881,5.91538671 Z M1.78648684,4.47069088 L1.23504043,5.71465157 L1.2070765,5.72605675 L0.227116834,4.49877588 L1.20795788,3.2387723 L1.23538097,3.25001825 L1.78648684,4.47069088 Z M2.58259764,2.54275781 L1.31712941,3.04928311 L1.28990663,3.03809688 L1.46313881,1.47246236 L3.06551638,1.25170348 L3.07663385,1.27841508 L2.58259764,2.54275781 Z M2.72099509,2.48871756 L3.19401828,1.27714121 L4.3896568,1.83726886 L2.72099509,2.48871756 Z M1.31704928,3.16640017 L2.52578839,2.68268523 L1.84443789,4.33349036 L1.31704928,3.16640017 Z M2.50621764,6.27802363 L1.31704928,5.79820994 L1.84413741,4.6101605 L2.50621764,6.27802363 Z M4.3857707,7.15771525 L3.20445467,7.67707884 L2.70529041,6.47650958 L4.3857707,7.15771525 Z M6.3587906,2.61572707 L7.16177221,4.47574658 L6.38491164,6.345977 L4.52512965,7.09726581 L2.64619757,6.33560685 L1.90573419,4.47029279 L2.66687005,2.62615694 L4.52508959,1.90072385 L6.3587906,2.61572707 Z M6.30851161,2.47982033 L4.66100313,1.83738829 L5.86351245,1.27714121 L6.30851161,2.47982033 Z M7.74584988,3.07647242 L6.4442048,2.53282555 L5.98045618,1.2794103 L5.99197428,1.25168357 L7.60124268,1.47266141 L7.77134994,3.0662416 L7.74584988,3.07647242 Z M7.28079921,4.47688112 L7.82533476,3.27812315 L7.85359917,3.26675778 L8.8231024,4.48333013 L7.83537053,5.74689658 L7.81035122,5.73644681 L7.28079921,4.47688112 Z M6.50341783,2.6761168 L7.74398695,3.19402738 L7.2224876,4.34175065 L6.50341783,2.6761168 Z M7.72659963,5.81893034 L6.52593321,6.29026479 L6.52577296,6.29066288 L6.52575292,6.29066288 L7.22106536,4.61678864 L7.72659963,5.81893034 Z M5.87046337,7.6943757 L4.66350706,7.15823276 L6.33212871,6.48419265 L6.33204859,6.48421255 L5.87046337,7.6943757 Z M6.4697249,6.42909747 L7.72535768,5.93584836 L7.75290096,5.94733315 L7.579809,7.49264535 L5.99888514,7.71935563 L5.98768754,7.6925445 L6.4697249,6.42909747 Z M2.77620182,8.52552066 L1.44669297,7.60830939 L3.14488107,7.82048951 L4.48833183,8.882246 L2.77620182,8.52552066 Z M1.3373011,7.6640216 L2.73243306,8.62649531 L4.52512965,9 L6.2817095,8.65523716 L7.74188365,7.64965068 L8.73943094,6.18435387 L9.05027933,4.48203635 L8.71775689,2.75818234 L7.76357773,1.31444192 L6.24555269,0.316040897 L4.54682373,0 L2.79747525,0.316040897 L1.30116432,1.31444192 L0.32529108,2.77973872 L0,4.50000995 L0.332502411,6.16281739 L1.3373011,7.6640216 Z" id="Fill-15" fill="#323C47"></path>
                                </g>
                                <g id="Group-19-Copy-8" transform="translate(19.146768, 6.442975) rotate(68.000000) translate(-19.146768, -6.442975) translate(14.621628, 1.942975)">
                                    <ellipse id="Oval-7" fill="#FFFFFF" fill-rule="nonzero" cx="4.52513966" cy="4.5" rx="4.52513966" ry="4.5"></ellipse>
                                    <path d="M1.17266243,5.85718646 L1.39459111,7.55504542 L0.434682951,6.12089888 L0.117744995,4.53599697 L1.17266243,5.85718646 Z M0.427812156,2.8210203 L1.35901521,1.42280107 L1.17266243,3.10710518 L0.117364397,4.46280877 L0.427812156,2.8210203 Z M2.83914071,0.418010762 L4.5087439,0.116380597 L3.14061437,1.13605934 L3.13398395,1.13297417 L1.41209862,1.37019393 L2.83914071,0.418010762 Z M5.79073811,1.1685432 L5.77893957,1.19696658 L4.52520977,1.78107895 L3.27540615,1.19557328 L3.26663236,1.17750015 L4.54598241,0.223983387 L5.79073811,1.1685432 Z M6.20402745,0.417931144 L7.65216268,1.37035317 L5.92340655,1.13297417 L4.58386193,0.116500023 L6.20402745,0.417931144 Z M8.61529591,2.79946391 L8.93309522,4.44696492 L7.8883738,3.13598636 L7.70548646,1.42282097 L8.61529591,2.79946391 Z M8.63682974,6.14279364 L7.68385247,7.54260521 L7.87018523,5.87884236 L8.93335563,4.51877973 L8.63682974,6.14279364 Z M6.23850161,8.55388433 L4.56399071,8.88254457 L5.93067797,7.83852283 L7.63139004,7.59465502 L6.23850161,8.55388433 Z M3.27688848,7.78649292 L3.2884867,7.75856715 L4.52488927,7.21573636 L5.78645137,7.77564507 L5.79800953,7.80331208 L4.52685236,8.77434465 L3.27688848,7.78649292 Z M1.31674881,5.91538671 L2.42350769,6.36245779 L2.5619452,6.41844866 L3.08592845,7.67865128 L3.07591271,7.70273552 L1.49799357,7.50560307 L1.29148912,5.92571705 L1.31674881,5.91538671 Z M1.78648684,4.47069088 L1.23504043,5.71465157 L1.2070765,5.72605675 L0.227116834,4.49877588 L1.20795788,3.2387723 L1.23538097,3.25001825 L1.78648684,4.47069088 Z M2.58259764,2.54275781 L1.31712941,3.04928311 L1.28990663,3.03809688 L1.46313881,1.47246236 L3.06551638,1.25170348 L3.07663385,1.27841508 L2.58259764,2.54275781 Z M2.72099509,2.48871756 L3.19401828,1.27714121 L4.3896568,1.83726886 L2.72099509,2.48871756 Z M1.31704928,3.16640017 L2.52578839,2.68268523 L1.84443789,4.33349036 L1.31704928,3.16640017 Z M2.50621764,6.27802363 L1.31704928,5.79820994 L1.84413741,4.6101605 L2.50621764,6.27802363 Z M4.3857707,7.15771525 L3.20445467,7.67707884 L2.70529041,6.47650958 L4.3857707,7.15771525 Z M6.3587906,2.61572707 L7.16177221,4.47574658 L6.38491164,6.345977 L4.52512965,7.09726581 L2.64619757,6.33560685 L1.90573419,4.47029279 L2.66687005,2.62615694 L4.52508959,1.90072385 L6.3587906,2.61572707 Z M6.30851161,2.47982033 L4.66100313,1.83738829 L5.86351245,1.27714121 L6.30851161,2.47982033 Z M7.74584988,3.07647242 L6.4442048,2.53282555 L5.98045618,1.2794103 L5.99197428,1.25168357 L7.60124268,1.47266141 L7.77134994,3.0662416 L7.74584988,3.07647242 Z M7.28079921,4.47688112 L7.82533476,3.27812315 L7.85359917,3.26675778 L8.8231024,4.48333013 L7.83537053,5.74689658 L7.81035122,5.73644681 L7.28079921,4.47688112 Z M6.50341783,2.6761168 L7.74398695,3.19402738 L7.2224876,4.34175065 L6.50341783,2.6761168 Z M7.72659963,5.81893034 L6.52593321,6.29026479 L6.52577296,6.29066288 L6.52575292,6.29066288 L7.22106536,4.61678864 L7.72659963,5.81893034 Z M5.87046337,7.6943757 L4.66350706,7.15823276 L6.33212871,6.48419265 L6.33204859,6.48421255 L5.87046337,7.6943757 Z M6.4697249,6.42909747 L7.72535768,5.93584836 L7.75290096,5.94733315 L7.579809,7.49264535 L5.99888514,7.71935563 L5.98768754,7.6925445 L6.4697249,6.42909747 Z M2.77620182,8.52552066 L1.44669297,7.60830939 L3.14488107,7.82048951 L4.48833183,8.882246 L2.77620182,8.52552066 Z M1.3373011,7.6640216 L2.73243306,8.62649531 L4.52512965,9 L6.2817095,8.65523716 L7.74188365,7.64965068 L8.73943094,6.18435387 L9.05027933,4.48203635 L8.71775689,2.75818234 L7.76357773,1.31444192 L6.24555269,0.316040897 L4.54682373,0 L2.79747525,0.316040897 L1.30116432,1.31444192 L0.32529108,2.77973872 L0,4.50000995 L0.332502411,6.16281739 L1.3373011,7.6640216 Z" id="Fill-15" fill="#323C47"></path>
                                </g>
                                <g id="Group-19-Copy-10" transform="translate(36.663288, 49.557025) rotate(68.000000) translate(-36.663288, -49.557025) translate(32.138149, 45.057025)">
                                    <ellipse id="Oval-7" fill="#FFFFFF" fill-rule="nonzero" cx="4.52513966" cy="4.5" rx="4.52513966" ry="4.5"></ellipse>
                                    <path d="M1.17266243,5.85718646 L1.39459111,7.55504542 L0.434682951,6.12089888 L0.117744995,4.53599697 L1.17266243,5.85718646 Z M0.427812156,2.8210203 L1.35901521,1.42280107 L1.17266243,3.10710518 L0.117364397,4.46280877 L0.427812156,2.8210203 Z M2.83914071,0.418010762 L4.5087439,0.116380597 L3.14061437,1.13605934 L3.13398395,1.13297417 L1.41209862,1.37019393 L2.83914071,0.418010762 Z M5.79073811,1.1685432 L5.77893957,1.19696658 L4.52520977,1.78107895 L3.27540615,1.19557328 L3.26663236,1.17750015 L4.54598241,0.223983387 L5.79073811,1.1685432 Z M6.20402745,0.417931144 L7.65216268,1.37035317 L5.92340655,1.13297417 L4.58386193,0.116500023 L6.20402745,0.417931144 Z M8.61529591,2.79946391 L8.93309522,4.44696492 L7.8883738,3.13598636 L7.70548646,1.42282097 L8.61529591,2.79946391 Z M8.63682974,6.14279364 L7.68385247,7.54260521 L7.87018523,5.87884236 L8.93335563,4.51877973 L8.63682974,6.14279364 Z M6.23850161,8.55388433 L4.56399071,8.88254457 L5.93067797,7.83852283 L7.63139004,7.59465502 L6.23850161,8.55388433 Z M3.27688848,7.78649292 L3.2884867,7.75856715 L4.52488927,7.21573636 L5.78645137,7.77564507 L5.79800953,7.80331208 L4.52685236,8.77434465 L3.27688848,7.78649292 Z M1.31674881,5.91538671 L2.42350769,6.36245779 L2.5619452,6.41844866 L3.08592845,7.67865128 L3.07591271,7.70273552 L1.49799357,7.50560307 L1.29148912,5.92571705 L1.31674881,5.91538671 Z M1.78648684,4.47069088 L1.23504043,5.71465157 L1.2070765,5.72605675 L0.227116834,4.49877588 L1.20795788,3.2387723 L1.23538097,3.25001825 L1.78648684,4.47069088 Z M2.58259764,2.54275781 L1.31712941,3.04928311 L1.28990663,3.03809688 L1.46313881,1.47246236 L3.06551638,1.25170348 L3.07663385,1.27841508 L2.58259764,2.54275781 Z M2.72099509,2.48871756 L3.19401828,1.27714121 L4.3896568,1.83726886 L2.72099509,2.48871756 Z M1.31704928,3.16640017 L2.52578839,2.68268523 L1.84443789,4.33349036 L1.31704928,3.16640017 Z M2.50621764,6.27802363 L1.31704928,5.79820994 L1.84413741,4.6101605 L2.50621764,6.27802363 Z M4.3857707,7.15771525 L3.20445467,7.67707884 L2.70529041,6.47650958 L4.3857707,7.15771525 Z M6.3587906,2.61572707 L7.16177221,4.47574658 L6.38491164,6.345977 L4.52512965,7.09726581 L2.64619757,6.33560685 L1.90573419,4.47029279 L2.66687005,2.62615694 L4.52508959,1.90072385 L6.3587906,2.61572707 Z M6.30851161,2.47982033 L4.66100313,1.83738829 L5.86351245,1.27714121 L6.30851161,2.47982033 Z M7.74584988,3.07647242 L6.4442048,2.53282555 L5.98045618,1.2794103 L5.99197428,1.25168357 L7.60124268,1.47266141 L7.77134994,3.0662416 L7.74584988,3.07647242 Z M7.28079921,4.47688112 L7.82533476,3.27812315 L7.85359917,3.26675778 L8.8231024,4.48333013 L7.83537053,5.74689658 L7.81035122,5.73644681 L7.28079921,4.47688112 Z M6.50341783,2.6761168 L7.74398695,3.19402738 L7.2224876,4.34175065 L6.50341783,2.6761168 Z M7.72659963,5.81893034 L6.52593321,6.29026479 L6.52577296,6.29066288 L6.52575292,6.29066288 L7.22106536,4.61678864 L7.72659963,5.81893034 Z M5.87046337,7.6943757 L4.66350706,7.15823276 L6.33212871,6.48419265 L6.33204859,6.48421255 L5.87046337,7.6943757 Z M6.4697249,6.42909747 L7.72535768,5.93584836 L7.75290096,5.94733315 L7.579809,7.49264535 L5.99888514,7.71935563 L5.98768754,7.6925445 L6.4697249,6.42909747 Z M2.77620182,8.52552066 L1.44669297,7.60830939 L3.14488107,7.82048951 L4.48833183,8.882246 L2.77620182,8.52552066 Z M1.3373011,7.6640216 L2.73243306,8.62649531 L4.52512965,9 L6.2817095,8.65523716 L7.74188365,7.64965068 L8.73943094,6.18435387 L9.05027933,4.48203635 L8.71775689,2.75818234 L7.76357773,1.31444192 L6.24555269,0.316040897 L4.54682373,0 L2.79747525,0.316040897 L1.30116432,1.31444192 L0.32529108,2.77973872 L0,4.50000995 L0.332502411,6.16281739 L1.3373011,7.6640216 Z" id="Fill-15" fill="#323C47"></path>
                                </g>
                            </g>
                        </g>
                    </g>
                </g>
            </g>
        </g>
    </g>
</svg>