<?xml version="1.0" encoding="UTF-8"?>
<svg width="119px" height="39px" viewBox="0 0 119 39" version="1.1" xmlns="http://www.w3.org/2000/svg" xmlns:xlink="http://www.w3.org/1999/xlink">
    <!-- Generator: Sketch 51.1 (57501) - http://www.bohemiancoding.com/sketch -->
    <title>Group 2 Copy</title>
    <desc>Created with Sketch.</desc>
    <defs>
        <path d="M19.1276655,11.4634146 C19.1276655,12.6829329 18.9809074,13.7560929 18.6873868,14.6829268 C18.3938661,15.6097607 17.9943579,16.4065007 17.4888502,17.0731707 C16.9833424,17.7398407 16.39631,18.2926807 15.7277352,18.7317073 C15.0591604,19.1707339 14.3498295,19.5203239 13.5997213,19.7804878 C12.849613,20.0406517 12.0750563,20.2235767 11.2760279,20.3292683 C10.4769995,20.4349599 9.70244277,20.4878049 8.95233449,20.4878049 L0.0244599303,20.4878049 L0.0244599303,20.2439024 C0.432127474,20.1951217 0.82755906,20.0894317 1.21076655,19.9268293 C1.59397404,19.7642268 1.88341366,19.5691068 2.07909408,19.3414634 C2.16062759,19.2601622 2.2217768,19.1219522 2.26254355,18.9268293 C2.30331031,18.7317063 2.33999984,18.5121963 2.37261324,18.2682927 C2.40522664,18.024389 2.42968633,17.764229 2.44599303,17.4878049 C2.46229973,17.2113807 2.47045296,16.9430907 2.47045296,16.6829268 C2.47045296,16.4552834 2.47452958,16.1463434 2.48268293,15.7560976 C2.49083628,15.3658517 2.49898951,14.9390267 2.50714286,14.4756098 C2.51529621,14.0121928 2.51937282,13.5365878 2.51937282,13.0487805 L2.51937282,6 C2.51937282,5.70731561 2.50714298,5.43496061 2.48268293,5.18292683 C2.45822287,4.93089305 2.42153335,4.70325305 2.37261324,4.5 C2.32369314,4.29674695 2.25031408,4.13821195 2.15247387,4.02439024 C1.90787334,3.73170585 1.61435711,3.52845585 1.27191638,3.41463415 C0.92947564,3.30081244 0.546273897,3.21951244 0.122299652,3.17073171 L0.122299652,2.92682927 C0.807181125,2.92682927 1.79372178,2.92276427 3.08195122,2.91463415 C4.37018066,2.90650402 5.92744731,2.90243902 7.75379791,2.90243902 L9.31923345,2.90243902 C9.85735461,2.90243902 10.3954677,2.92682902 10.9335889,2.97560976 C11.47171,3.02439049 12.0098231,3.10569049 12.5479443,3.2195122 C13.0860654,3.3333339 13.6160253,3.5040639 14.1378397,3.73170732 C14.8227212,4.02439171 15.4668263,4.39837171 16.0701742,4.85365854 C16.6735222,5.30894537 17.1994054,5.84959037 17.6478397,6.47560976 C18.096274,7.10162915 18.4550161,7.82519915 18.7240767,8.64634146 C18.9931372,9.46748378 19.1276655,10.4064988 19.1276655,11.4634146 Z M16.1190941,11.5121951 C16.1190941,10.569101 15.972336,9.65041098 15.6788153,8.75609756 C15.3852947,7.86178415 14.9776333,7.05284915 14.4558188,6.32926829 C13.9340044,5.60568744 13.314359,4.99187244 12.5968641,4.48780488 C11.8793692,3.98373732 11.0966593,3.65853732 10.2487108,3.51219512 C9.92257677,3.44715415 9.56383471,3.39430915 9.17247387,3.35365854 C8.78111303,3.31300793 8.30007254,3.29268293 7.72933798,3.29268293 C7.53365756,3.29268293 7.32167362,3.29674793 7.09337979,3.30487805 C6.86508597,3.31300817 6.64087218,3.32926817 6.42073171,3.35365854 C6.20059123,3.3780489 5.99676052,3.3983739 5.80923345,3.41463415 C5.62170638,3.43089439 5.47087165,3.45528439 5.35672474,3.48780488 C5.27519123,4.28455683 5.22627186,5.38210683 5.20996516,6.7804878 C5.19365846,8.17886878 5.18550523,9.84551878 5.18550523,11.7804878 L5.18550523,14.6341463 C5.18550523,15.479679 5.19365846,16.170729 5.20996516,16.7073171 C5.20996516,16.9349605 5.222195,17.1829255 5.24665505,17.4512195 C5.2711151,17.7195135 5.2996514,17.9796735 5.33226481,18.2317073 C5.36487821,18.4837411 5.4178742,18.7113811 5.49125436,18.9146341 C5.56463451,19.1178872 5.65024341,19.2682922 5.74808362,19.3658537 C6.07421766,19.6910585 6.4859557,19.8983735 6.9833101,19.9878049 C7.48066451,20.0772362 7.94947515,20.1219512 8.3897561,20.1219512 C8.79742364,20.1219512 9.21731491,20.1016262 9.64944251,20.0609756 C10.0815701,20.020325 10.4851549,19.94309 10.8602091,19.8292683 C12.6213328,19.3252007 13.9380793,18.3455357 14.8104878,16.8902439 C15.6828963,15.4349521 16.1190941,13.6422871 16.1190941,11.5121951 Z M33.1432056,20.4878049 L27.8843206,20.4878049 L27.8843206,20.2439024 C28.080001,20.2276422 28.2756785,20.2073172 28.4713589,20.1829268 C28.6670393,20.1585365 28.8423337,20.1178865 28.9972474,20.0609756 C29.1521611,20.0040648 29.2826127,19.9268298 29.3886063,19.8292683 C29.4945998,19.7317068 29.5475958,19.6097568 29.5475958,19.4634146 L29.5475958,11.097561 C29.5475958,10.967479 29.535366,10.853659 29.5109059,10.7560976 C29.4864459,10.6585361 29.4171434,10.5691061 29.3029965,10.4878049 C29.1562362,10.3902434 28.9809418,10.2926834 28.777108,10.195122 C28.5732742,10.0975605 28.3572137,10.0081305 28.1289199,9.92682927 L28.1289199,9.7804878 L31.4310105,8.70731707 L31.57777,8.70731707 L31.57777,19.6097561 C31.6103834,19.7723585 31.6796859,19.8902435 31.7856794,19.9634146 C31.891673,20.0365857 32.018048,20.0894307 32.1648084,20.1219512 C32.3115687,20.1544717 32.4705566,20.1747967 32.641777,20.1829268 C32.8129974,20.191057 32.9801386,20.211382 33.1432056,20.2439024 L33.1432056,20.4878049 Z M52.6133101,18.097561 C52.5970034,18.4065056 52.5236243,18.7073156 52.3931707,19 C52.2627171,19.2926844 52.0914993,19.5569094 51.8795122,19.7926829 C51.6675251,20.0284565 51.4188516,20.2073165 51.1334843,20.3292683 C50.848117,20.4512201 50.5342177,20.5121951 50.191777,20.5121951 C49.6373491,20.5121951 49.1440788,20.3495951 48.7119512,20.0243902 C48.2798236,19.6991854 48.0637631,19.1300854 48.0637631,18.3170732 L48.0148432,18.2926829 C47.8843896,18.5040661 47.7090952,18.7398361 47.4889547,19 C47.2688142,19.2601639 47.0079109,19.5040639 46.7062369,19.7317073 C46.404563,19.9593507 46.0702806,20.1422757 45.7033798,20.2804878 C45.336479,20.4186999 44.9328942,20.4878049 44.4926132,20.4878049 C44.231706,20.4878049 43.9667261,20.4512199 43.6976655,20.3780488 C43.4286049,20.3048777 43.1840081,20.1747977 42.9638676,19.9878049 C42.7437271,19.8008121 42.5643561,19.5609771 42.4257491,19.2682927 C42.2871422,18.9756083 42.2178397,18.6178883 42.2178397,18.195122 C42.2178397,17.7398351 42.4012874,17.3008151 42.7681882,16.8780488 C43.1350889,16.4552824 43.5875931,16.0731724 44.1257143,15.7317073 C44.6638354,15.3902422 45.1407993,15.0975622 45.5566202,14.8536585 C45.9724411,14.6097549 46.3352598,14.4024399 46.6450871,14.2317073 C46.9549144,14.0609748 47.2280476,13.9146348 47.4644948,13.7926829 C47.7009419,13.6707311 47.900696,13.5609761 48.0637631,13.4634146 L48.0637631,10.9512195 C48.0637631,10.918699 48.0352268,10.841464 47.9781533,10.7195122 C47.9210799,10.5975604 47.8232411,10.4715454 47.6846341,10.3414634 C47.5460272,10.2113815 47.3544263,10.0934965 47.1098258,9.98780488 C46.8652253,9.88211329 46.5472493,9.82926829 46.1558885,9.82926829 C45.8949813,9.82926829 45.6381546,9.87398329 45.3854007,9.96341463 C45.1326468,10.052846 44.908433,10.166666 44.7127526,10.304878 C44.5170722,10.4430901 44.3621608,10.5813001 44.2480139,10.7195122 C44.133867,10.8577243 44.0767944,10.9756093 44.0767944,11.0731707 L44.0767944,12.1707317 C44.0767944,12.3983751 43.9585726,12.6016251 43.7221254,12.7804878 C43.4856783,12.9593505 43.2288516,13.0487805 42.9516376,13.0487805 C42.6907304,13.0487805 42.4665166,12.9552855 42.2789895,12.7682927 C42.0914625,12.5812999 41.9977003,12.3658549 41.9977003,12.1219512 C41.9977003,11.9268283 42.0466197,11.7479683 42.1444599,11.5853659 C42.2423001,11.4227634 42.3645986,11.2764234 42.5113589,11.1463415 C42.6581192,11.0162595 42.8171072,10.9024395 42.9883275,10.804878 C43.1595479,10.7073166 43.3103826,10.6178866 43.4408362,10.5365854 C43.8648105,10.2926817 44.2969316,10.0569117 44.7372125,9.82926829 C45.1774935,9.60162488 45.5973848,9.40650488 45.996899,9.24390244 C46.3964131,9.0813 46.7633084,8.95122 47.0975958,8.85365854 C47.4318832,8.75609707 47.7050164,8.70731707 47.9170035,8.70731707 C48.3409777,8.70731707 48.7404859,8.81707207 49.1155401,9.03658537 C49.4905942,9.25609866 49.7596508,9.52845366 49.9227178,9.85365854 C49.9879446,9.96748024 50.0287107,10.1666652 50.0450174,10.4512195 C50.0613241,10.7357738 50.0694774,11.0162588 50.0694774,11.2926829 C50.0694774,11.8780517 50.0654007,12.4065017 50.0572474,12.8780488 C50.049094,13.3495959 50.0450174,13.8048759 50.0450174,14.2439024 C50.0450174,14.682929 50.0409408,15.134144 50.0327875,15.597561 C50.0246341,16.0609779 50.0205575,16.5691029 50.0205575,17.1219512 C50.0205575,17.8536622 50.1469325,18.3373972 50.3996864,18.5731707 C50.6524403,18.8089443 50.9418799,18.9268293 51.2680139,18.9268293 C51.6430681,18.9268293 51.9202778,18.8495943 52.0996516,18.695122 C52.2790253,18.5406496 52.4013237,18.3414646 52.4665505,18.097561 L52.6133101,18.097561 Z M48.0637631,17.6097561 L48.0637631,13.8536585 C47.7702424,14.0650417 47.4033471,14.2886167 46.9630662,14.5243902 C46.5227853,14.7601638 46.0947408,15.0162588 45.6789199,15.2926829 C45.263099,15.5691071 44.9043569,15.8739821 44.6026829,16.2073171 C44.3010089,16.5406521 44.1501742,16.9186971 44.1501742,17.3414634 C44.1501742,17.7642298 44.2969323,18.1463398 44.590453,18.4878049 C44.8839736,18.82927 45.2671753,19 45.7400697,19 C46.1640439,19 46.5390924,18.95122 46.8652265,18.8536585 C47.1913605,18.7560971 47.49303,18.5691071 47.7702439,18.2926829 C47.9659243,18.1138202 48.0637631,17.8861802 48.0637631,17.6097561 Z M78.9077352,20.4878049 L74.0891289,20.4878049 L74.0891289,20.2195122 C74.5294099,20.1869917 74.8636922,20.1341467 75.0919861,20.0609756 C75.3202799,19.9878045 75.4344251,19.8211395 75.4344251,19.5609756 L75.4344251,13.3414634 C75.4344251,12.3983693 75.2672839,11.6463443 74.9329965,11.0853659 C74.5987091,10.5243874 74.0076001,10.2439024 73.1596516,10.2439024 C72.6215304,10.2439024 72.1731028,10.3861774 71.8143554,10.6707317 C71.455608,10.955286 71.0805594,11.317071 70.6891986,11.7560976 L70.6891986,19.6341463 C70.6891986,19.747968 70.7299647,19.845528 70.8114983,19.9268293 C70.8930318,20.0081305 70.9990237,20.0691055 71.1294774,20.1097561 C71.259931,20.1504067 71.4026125,20.1829267 71.5575261,20.2073171 C71.7124398,20.2317074 71.8632745,20.2520324 72.0100348,20.2682927 L72.0100348,20.4878049 L67.1914286,20.4878049 L67.1914286,20.2195122 C67.6317095,20.1869917 67.9822983,20.1341467 68.2432056,20.0609756 C68.5041128,19.9878045 68.6345645,19.8211395 68.6345645,19.5609756 L68.6345645,13.3170732 C68.6345645,12.3577188 68.4674233,11.6056938 68.1331359,11.0609756 C67.7988485,10.5162574 67.2077394,10.2439024 66.3597909,10.2439024 C65.8216698,10.2439024 65.3813954,10.3577224 65.0389547,10.5853659 C64.696514,10.8130093 64.3133122,11.1544693 63.889338,11.6097561 L63.889338,19.6097561 C63.9219514,19.7723585 63.979024,19.8902435 64.0605575,19.9634146 C64.142091,20.0365857 64.2440064,20.0894307 64.3663066,20.1219512 C64.4886069,20.1544717 64.6231352,20.1747967 64.7698955,20.1829268 C64.9166558,20.191057 65.0715671,20.211382 65.2346341,20.2439024 L65.2346341,20.4878049 L60.4894077,20.4878049 L60.4894077,20.2439024 C60.8644618,20.211382 61.1865143,20.138212 61.4555749,20.0243902 C61.7246355,19.9105685 61.8591638,19.7235785 61.8591638,19.4634146 L61.8591638,11.1219512 C61.8591638,10.9918693 61.8469339,10.8943093 61.8224739,10.8292683 C61.7980138,10.7642273 61.7287114,10.6910573 61.6145645,10.6097561 C61.4678041,10.5284549 61.2965863,10.4349599 61.1009059,10.3292683 C60.9052255,10.2235767 60.709548,10.1300817 60.5138676,10.0487805 L60.5138676,9.85365854 L63.7181185,8.70731707 L63.864878,8.70731707 L63.864878,11.3414634 L63.9137979,11.3658537 C64.0768649,11.0731693 64.2888489,10.7682943 64.5497561,10.4512195 C64.8106633,10.1341448 65.1123328,9.84959476 65.4547735,9.59756098 C65.7972143,9.3455272 66.1681862,9.1341472 66.5677003,8.96341463 C66.9672145,8.79268207 67.3871058,8.70731707 67.8273868,8.70731707 C68.6101084,8.70731707 69.2419837,8.96341207 69.7230314,9.47560976 C70.2040791,9.98780744 70.5016719,10.6747924 70.6158188,11.5365854 L70.6891986,11.5365854 C70.8359589,11.243901 71.0397896,10.930896 71.3006969,10.597561 C71.5616041,10.264226 71.8632735,9.95528598 72.2057143,9.67073171 C72.548155,9.38617744 72.9272802,9.15447244 73.343101,8.97560976 C73.7589219,8.79674707 74.1869664,8.70731707 74.6272474,8.70731707 C75.5730361,8.70731707 76.2864436,9.04877707 76.7674913,9.73170732 C77.248539,10.4146376 77.4890592,11.2926776 77.4890592,12.3658537 L77.4890592,19.6341463 C77.4890592,19.747968 77.5379786,19.845528 77.6358188,19.9268293 C77.733659,20.0081305 77.8518808,20.0691055 77.9904878,20.1097561 C78.1290948,20.1504067 78.2799295,20.1829267 78.4429965,20.2073171 C78.6060635,20.2317074 78.7609749,20.2520324 78.9077352,20.2682927 L78.9077352,20.4878049 Z M97.3749826,16.7804878 C97.3097558,17.1382132 97.1629977,17.5406482 96.9347038,17.9878049 C96.70641,18.4349616 96.3965873,18.8455266 96.0052265,19.2195122 C95.6138656,19.5934978 95.145055,19.9024378 94.5987805,20.1463415 C94.052506,20.3902451 93.4450905,20.5121951 92.7765157,20.5121951 C91.9448739,20.5121951 91.1866236,20.3577251 90.5017422,20.0487805 C89.8168607,19.7398359 89.2339048,19.3048809 88.7528571,18.7439024 C88.2718094,18.182924 87.9008375,17.524394 87.6399303,16.7682927 C87.3790231,16.0121913 87.2485714,15.2113863 87.2485714,14.3658537 C87.2485714,13.6829234 87.3708699,13.0040684 87.6154704,12.3292683 C87.8600709,11.6544682 88.2065831,11.0487832 88.6550174,10.5121951 C89.1034517,9.97560707 89.649718,9.54065207 90.2938328,9.20731707 C90.9379475,8.87398207 91.651355,8.70731707 92.4340767,8.70731707 C93.070038,8.70731707 93.6693003,8.78861707 94.2318815,8.95121951 C94.7944627,9.11382195 95.2836565,9.36178695 95.6994774,9.69512195 C96.1152982,10.028457 96.4536572,10.447152 96.7145645,10.9512195 C96.9754717,11.4552871 97.130383,12.0487771 97.1793031,12.7317073 L89.3276655,12.7317073 C89.3276655,12.8617893 89.3195123,13.0121943 89.3032056,13.1829268 C89.2868989,13.3536594 89.2787456,13.5284544 89.2787456,13.7073171 C89.2787456,14.3902473 89.3765844,15.0447123 89.5722648,15.6707317 C89.7679452,16.2967511 90.0533082,16.8495911 90.4283624,17.3292683 C90.8034165,17.8089455 91.2763038,18.1869905 91.8470383,18.4634146 C92.4177729,18.7398388 93.0781844,18.8780488 93.8282927,18.8780488 C94.6436278,18.8780488 95.3570353,18.6707338 95.9685366,18.2560976 C96.5800379,17.8414613 96.9836227,17.3333363 97.1793031,16.7317073 L97.3749826,16.7804878 Z M94.75777,11.3170732 C94.75777,10.7154441 94.5498627,10.1991891 94.1340418,9.76829268 C93.7182209,9.33739622 93.1597248,9.12195122 92.4585366,9.12195122 C92.0019489,9.12195122 91.5902109,9.25609622 91.2233101,9.52439024 C90.8564093,9.79268427 90.5384334,10.1056893 90.2693728,10.4634146 C90.0003122,10.82114 89.7924049,11.182925 89.6456446,11.5487805 C89.4988843,11.914636 89.4091988,12.195121 89.3765854,12.3902439 L90.3794425,12.3902439 C90.6729631,12.3902439 90.9624028,12.3861789 91.24777,12.3780488 C91.5331373,12.3699187 91.8307302,12.3617887 92.1405575,12.3536585 C92.4503848,12.3455284 92.7928204,12.3414634 93.1678746,12.3414634 C93.4124751,12.3414634 93.6407655,12.3333334 93.8527526,12.3170732 C94.0647397,12.3008129 94.252264,12.2601629 94.415331,12.195122 C94.5294779,12.06504 94.6150868,11.94309 94.6721603,11.8292683 C94.7292337,11.7154466 94.75777,11.5447166 94.75777,11.3170732 Z M116.820627,9.2195122 C116.55972,9.23577244 116.33143,9.25203244 116.135749,9.26829268 C115.940069,9.28455293 115.736238,9.34959293 115.524251,9.46341463 C115.312264,9.57723634 115.06359,9.77235634 114.778223,10.0487805 C114.492856,10.3252046 114.130037,10.7398346 113.689756,11.2926829 C113.445156,11.6016276 113.237248,11.8699176 113.066028,12.097561 C112.894808,12.3252044 112.73582,12.5365844 112.589059,12.7317073 C112.442299,12.9268302 112.295541,13.1260152 112.14878,13.3292683 C112.00202,13.5325213 111.830802,13.7723563 111.635122,14.0487805 C111.847109,14.4715468 112.042787,14.8495918 112.22216,15.1829268 C112.401534,15.5162618 112.584982,15.8333318 112.772509,16.1341463 C112.960036,16.4349609 113.151637,16.7479659 113.347317,17.0731707 C113.542997,17.3983756 113.754981,17.7560956 113.983275,18.1463415 C114.276796,18.650409 114.529546,19.040649 114.741533,19.3170732 C114.95352,19.5934973 115.157351,19.7967473 115.353031,19.9268293 C115.548712,20.0569112 115.748466,20.1341462 115.9523,20.1585366 C116.156133,20.182927 116.404807,20.203252 116.698328,20.2195122 L116.698328,20.4878049 L110.999164,20.4878049 L110.999164,20.2195122 C111.080697,20.2195122 111.178536,20.2154472 111.292683,20.2073171 C111.40683,20.199187 111.520975,20.174797 111.635122,20.1341463 C111.749269,20.0934957 111.855261,20.0203257 111.953101,19.9146341 C112.050941,19.8089426 112.116167,19.6504076 112.14878,19.4390244 C112.132474,19.2276412 112.063171,18.9837412 111.940871,18.7073171 C111.818571,18.4308929 111.671813,18.1260179 111.500592,17.7926829 C111.329372,17.4593479 111.141848,17.1138229 110.938014,16.7560976 C110.73418,16.3983722 110.534426,16.0406522 110.338746,15.6829268 C110.143065,15.9756112 109.914775,16.3048762 109.653868,16.6707317 C109.39296,17.0365872 109.144287,17.3943072 108.90784,17.7439024 C108.671393,18.0934977 108.475715,18.4186977 108.320801,18.7195122 C108.165888,19.0203267 108.088432,19.2439017 108.088432,19.3902439 C108.202579,19.7479693 108.373797,19.9715443 108.602091,20.0609756 C108.830384,20.150407 109.156514,20.203252 109.580488,20.2195122 L109.580488,20.4878049 L104.810801,20.4878049 L104.810801,20.2195122 C105.006482,20.2195122 105.206236,20.2154472 105.41007,20.2073171 C105.613903,20.199187 105.829964,20.142277 106.058258,20.0365854 C106.286552,19.9308938 106.551532,19.7520338 106.853206,19.5 C107.15488,19.2479662 107.509545,18.8699212 107.917213,18.3658537 C108.390107,17.7967451 108.818151,17.2479701 109.201359,16.7195122 C109.584566,16.1910543 109.906619,15.7398393 110.167526,15.3658537 C109.906619,14.9268271 109.674252,14.5284571 109.470418,14.1707317 C109.266584,13.8130063 109.062754,13.4593513 108.85892,13.1097561 C108.655086,12.7601609 108.451255,12.4065059 108.247422,12.0487805 C108.043588,11.6910551 107.811221,11.2926851 107.550314,10.8536585 C107.436167,10.6747959 107.309792,10.4878059 107.171185,10.2926829 C107.032578,10.09756 106.906203,9.93496 106.792056,9.80487805 C106.482228,9.57723463 106.168329,9.43495963 105.850348,9.37804878 C105.532368,9.32113793 105.218468,9.26829293 104.908641,9.2195122 L104.908641,8.95121951 L110.754564,8.95121951 L110.754564,9.2195122 C110.689338,9.2195122 110.599652,9.2276422 110.485505,9.24390244 C110.371358,9.26016268 110.253136,9.28861768 110.130836,9.32926829 C110.008536,9.3699189 109.890314,9.4349589 109.776167,9.52439024 C109.66202,9.61382159 109.572335,9.73170659 109.507108,9.87804878 C109.523415,9.97561024 109.584564,10.1504052 109.690557,10.402439 C109.796551,10.6544728 109.943309,10.9593478 110.130836,11.3170732 C110.318363,11.6747985 110.526271,12.0691035 110.754564,12.5 C110.982858,12.9308965 111.227455,13.3577215 111.488362,13.7804878 C111.716656,13.4390227 111.957176,13.0813027 112.20993,12.7073171 C112.462684,12.3333315 112.690975,11.9756115 112.894808,11.6341463 C113.098642,11.2926812 113.273937,10.9837412 113.420697,10.7073171 C113.567457,10.4308929 113.640836,10.2276429 113.640836,10.097561 C113.591916,9.75609585 113.445158,9.53252085 113.200557,9.42682927 C112.955957,9.32113768 112.605368,9.25203268 112.14878,9.2195122 L112.14878,8.95121951 L116.820627,8.95121951 L116.820627,9.2195122 Z" id="path-1"></path>
    </defs>
    <g id="Page-1" stroke="none" stroke-width="1" fill="none" fill-rule="evenodd">
        <g id="Home" transform="translate(-128.000000, -29.000000)">
            <g id="Group-2-Copy" transform="translate(129.000000, 30.000000)">
                <g id="Group">
                    <path d="M32.4704079,1.51961745 L32.7245795,0.182045052 L33.8263118,1.51961745 L32.4704079,1.51961745 Z M30.7883333,5.21637139 L32.43916,1.6303575 L33.824379,1.6303575 L30.7883333,5.21637139 Z M27.3256079,1.6303575 L28.7108269,1.6303575 L30.3619757,5.21685427 L27.3256079,1.6303575 Z M28.4252463,0.182045052 L28.6794179,1.51961745 L27.323514,1.51961745 L28.4252463,0.182045052 Z M30.4169013,0.110901009 L28.7833093,1.47197347 L28.5247888,0.110901009 L30.4169013,0.110901009 Z M30.5172491,1.51961745 L28.8994422,1.51961745 L30.514833,0.173675164 L30.5172491,1.51961745 Z M30.5240141,5.30377233 L28.8330805,1.6303575 L30.5174102,1.6303575 L30.5240141,5.30377233 Z M32.2499004,1.51961745 L30.6282277,1.51961745 L30.6258116,0.173514205 L32.2499004,1.51961745 Z M30.6283888,1.6303575 L32.3170674,1.6303575 L30.6348317,5.28429624 L30.6283888,1.6303575 Z M32.6251981,0.110901009 L32.3666776,1.47229539 L30.7237434,0.110901009 L32.6251981,0.110901009 Z M33.998981,1.56919294 C33.9988199,1.56726142 33.9984978,1.56532991 33.9980146,1.5633984 C33.9976924,1.56194976 33.9973703,1.56050113 33.9968871,1.5590525 C33.9962428,1.5566381 33.9952763,1.55422371 33.9943099,1.55197028 C33.9935045,1.55019973 33.9925381,1.54842918 33.9915717,1.54681958 C33.9906052,1.54504903 33.9894777,1.54327848 33.9881892,1.54166888 L33.9867395,1.53973737 L32.7350492,0.0202808811 C32.7303781,0.0144863436 32.7244184,0.00981852181 32.7176534,0.00627741558 L32.7149152,0.00498974059 L32.7120159,0.0037020656 C32.7105662,0.0030582281 32.7089555,0.00257534998 32.7073448,0.00209247186 C32.7057341,0.00160959374 32.7041234,0.00128767499 32.7025126,0.000965756243 C32.701063,0.000643837495 32.6997744,0.000482878122 32.6983248,0.000321918748 C32.6963919,0.000160959374 32.694298,0 32.692204,0 L28.4577828,0 C28.4556889,0 28.4535949,0.000160959374 28.4516621,0.000321918748 C28.4502124,0.000482878122 28.4489239,0.000643837495 28.4474742,0.000965756243 L28.4471521,0.000965756243 L28.4440917,0.00177055311 L28.4397428,0.0030582281 C28.4378099,0.0037020656 28.435877,0.00450686247 28.4341052,0.00531165934 C28.4263738,0.00885276556 28.4197698,0.0143253843 28.4144545,0.0207637592 L27.1632473,1.53973737 L27.1629252,1.54022025 L27.160348,1.5436004 C27.1593816,1.54504903 27.1585762,1.5463367 27.1577709,1.54778534 L27.1555159,1.55197028 C27.1547105,1.55374084 27.1539052,1.55567235 27.1534219,1.55760386 C27.1527777,1.55937441 27.1521334,1.56130593 27.1518112,1.56323744 C27.151328,1.56516895 27.1510059,1.56710046 27.1508448,1.56903198 C27.1506837,1.57112445 27.1505226,1.57305596 27.1505226,1.57498747 C27.1505226,1.57691899 27.1506837,1.5788505 27.1508448,1.58078201 C27.1511669,1.5831964 27.1514891,1.58561079 27.1521334,1.58786422 C27.1524555,1.58947382 27.1529387,1.59124437 27.153583,1.59285396 C27.1540662,1.59446356 27.1547105,1.59607315 27.1553548,1.59752179 C27.1563212,1.5994533 27.1572877,1.60138481 27.1584152,1.60315536 L27.1606702,1.60669647 C27.1616366,1.6081451 27.162603,1.60943278 27.1637306,1.61072045 L27.1645359,1.61168621 L30.532551,5.59011905 C30.5431817,5.60251293 30.5586446,5.6097561 30.5749129,5.6097561 C30.5913422,5.6097561 30.6068051,5.60251293 30.6172748,5.59011905 L33.9862563,1.61072045 C33.9873838,1.60943278 33.9883502,1.6081451 33.9893167,1.60669647 L33.9904442,1.60492592 C33.9917328,1.6029944 33.9930213,1.60090193 33.9939878,1.5986485 L33.9941488,1.59800466 C33.9957596,1.59462452 33.9970481,1.59124437 33.9978535,1.5875423 C33.9984978,1.58544983 33.9988199,1.5831964 33.998981,1.58094297 C33.9991421,1.57901146 33.9993031,1.57707995 33.9993031,1.57514843 L33.9993031,1.57498747 C33.9993031,1.57305596 33.9991421,1.57112445 33.998981,1.56919294 Z" id="Fill-144" stroke="#323C47" stroke-width="0.5"></path>
                    <g id="D-i-a-m-e-x">
                        <use fill="#ECF5FF" xlink:href="#path-1"></use>
                        <use fill="#323C47" xlink:href="#path-1"></use>
                    </g>
                </g>
                <text id="J-O-Y-A-S" font-family="BigCaslon-Medium, Big Caslon" font-size="9.75609756" font-weight="400" letter-spacing="0.487804453" fill="#323C47">
                    <tspan x="36.6898955" y="36.5609756">J O Y A S</tspan>
                </text>
                <path d="M0,33.4146341 L29.3519164,33.4146341" id="Line-3" stroke="#323C47" stroke-width="0.5" stroke-linecap="round" fill-rule="nonzero"></path>
                <path d="M87.8111498,33.4146341 L116.918467,33.4146341" id="Line-3" stroke="#323C47" stroke-width="0.5" stroke-linecap="round" fill-rule="nonzero"></path>
            </g>
        </g>
    </g>
</svg>